<svg version="1.1" xmlns="http://www.w3.org/2000/svg" height="400" viewBox="0 0 90 32">
<g>
	<path d="M19.1,25.2c0.3,0,0.6,0.1,0.7,0.2c0.2,0.1,0.3,0.3,0.4,0.4c0.1,0.2,0.2,0.4,0.2,0.6v3.3c0,0.3-0.1,0.6-0.2,0.7
		c-0.1,0.2-0.3,0.3-0.4,0.3c-0.2,0.1-0.4,0.2-0.6,0.1H3.6c-0.3,0-0.6-0.1-0.7-0.2c-0.2-0.1-0.3-0.3-0.3-0.4
		c-0.1-0.2-0.2-0.4-0.1-0.6V10.2c0-0.3,0.1-0.5,0.2-0.7C2.7,9.4,2.9,9.3,3,9.2C3.2,9.1,3.4,9,3.6,9h15.5c0.3,0,0.6,0.1,0.7,0.2
		c0.2,0.1,0.3,0.3,0.4,0.4c0.1,0.2,0.2,0.4,0.2,0.6V22c0,0.3-0.1,0.6-0.2,0.7c-0.1,0.2-0.3,0.3-0.4,0.3c-0.2,0.1-0.4,0.2-0.6,0.1
		h-6.8v-6.8c0.3-0.2,0.6-0.4,0.8-0.7c0.2-0.3,0.3-0.7,0.3-1c0-0.6-0.2-1.1-0.6-1.4c-0.4-0.4-0.9-0.6-1.4-0.6c-0.5,0-1,0.2-1.4,0.6
		c-0.4,0.4-0.6,0.9-0.6,1.4c0,0.8,0.3,1.4,1,1.8v8.7H19.1z"/>
	<path d="M24.6,29.7V10.2c0-0.2,0-0.4,0.1-0.6c0.1-0.1,0.2-0.3,0.3-0.4C25.3,9.1,25.5,9,25.8,9h5.5c0.2,0,0.4,0.1,0.6,0.2
		c0.1,0.1,0.3,0.2,0.4,0.3c0.1,0.1,0.2,0.4,0.2,0.7v13.2c-0.7,0.4-1,1-1,1.8c0,0.5,0.2,1,0.6,1.4c0.4,0.4,0.9,0.6,1.4,0.6
		c0.6,0,1.1-0.2,1.4-0.6c0.4-0.4,0.6-0.9,0.6-1.4c0-0.4-0.1-0.8-0.3-1.1c-0.2-0.3-0.4-0.5-0.8-0.7V2.3c0-0.2,0-0.4,0.1-0.6
		c0.1-0.1,0.2-0.3,0.3-0.4C35.2,1.1,35.4,1,35.8,1h5.5c0.2,0,0.4,0.1,0.6,0.2c0.1,0.1,0.3,0.2,0.4,0.4c0.1,0.2,0.2,0.4,0.2,0.7v27.4
		c0,0.2-0.1,0.4-0.2,0.6c-0.1,0.1-0.2,0.3-0.4,0.4c-0.2,0.1-0.4,0.2-0.7,0.2H25.8c-0.2,0-0.4,0-0.6-0.1c-0.1-0.1-0.3-0.2-0.4-0.3
		C24.7,30.3,24.6,30,24.6,29.7z"/>
	<path d="M46.9,29.7V10.2c0-0.2,0-0.4,0.1-0.6c0.1-0.1,0.2-0.3,0.3-0.4C47.5,9.1,47.7,9,48.1,9h5.5c0.2,0,0.4,0.1,0.6,0.2
		c0.1,0.1,0.3,0.2,0.4,0.3c0.1,0.1,0.2,0.4,0.2,0.7v13.2c-0.7,0.4-1,1-1,1.8c0,0.5,0.2,1,0.6,1.4c0.4,0.4,0.9,0.6,1.4,0.6
		c0.6,0,1.1-0.2,1.4-0.6c0.4-0.4,0.6-0.9,0.6-1.4c0-0.4-0.1-0.8-0.3-1.1c-0.2-0.3-0.4-0.5-0.8-0.7V2.3c0-0.2,0-0.4,0.1-0.6
		c0.1-0.1,0.2-0.3,0.3-0.4C57.4,1.1,57.7,1,58,1h5.5c0.2,0,0.4,0.1,0.6,0.2c0.1,0.1,0.3,0.2,0.4,0.4c0.1,0.2,0.2,0.4,0.2,0.7v27.4
		c0,0.2-0.1,0.4-0.2,0.6c-0.1,0.1-0.2,0.3-0.4,0.4s-0.4,0.2-0.7,0.2H48.1c-0.2,0-0.4,0-0.6-0.1c-0.1-0.1-0.3-0.2-0.4-0.3
		C46.9,30.3,46.9,30,46.9,29.7z"/>
	<path d="M87,29.7c0,0.3-0.1,0.6-0.2,0.7c-0.1,0.2-0.3,0.3-0.4,0.3c-0.2,0.1-0.4,0.2-0.6,0.1H70.3c-0.3,0-0.6-0.1-0.7-0.2
		s-0.3-0.3-0.3-0.4c-0.1-0.2-0.2-0.4-0.1-0.6V2.3c0-0.3,0.1-0.6,0.2-0.7c0.1-0.2,0.3-0.3,0.4-0.4C69.9,1.1,70.1,1,70.3,1h5.5
		c0.3,0,0.6,0.1,0.7,0.2c0.2,0.1,0.3,0.3,0.4,0.4c0.1,0.2,0.2,0.4,0.2,0.6v21.2c-0.7,0.4-1,1-1,1.8c0,0.5,0.2,1,0.6,1.4
		c0.4,0.4,0.8,0.6,1.4,0.6c0.6,0,1.1-0.2,1.4-0.6c0.4-0.4,0.6-0.9,0.6-1.4c0-0.4-0.1-0.8-0.3-1.1c-0.2-0.3-0.4-0.5-0.8-0.7V10.2
		c0-0.3,0.1-0.5,0.2-0.7c0.1-0.1,0.3-0.3,0.4-0.3C79.8,9.1,80,9,80.2,9h5.5c0.3,0,0.6,0.1,0.7,0.2c0.2,0.1,0.3,0.3,0.4,0.4
		C87,9.8,87,10,87,10.2V29.7z"/>
</g>
</svg>
