<svg version="1.1" xmlns="http://www.w3.org/2000/svg" width="512" height="512" viewBox="0 0 512 512">
<path d="M437.020 74.98c-48.353-48.351-112.64-74.98-181.020-74.98s-132.667 26.629-181.020 74.98c-48.351 48.353-74.98 112.64-74.98 181.020s26.629 132.667 74.98 181.020c48.353 48.351 112.64 74.98 181.020 74.98s132.667-26.629 181.020-74.98c48.351-48.353 74.98-112.64 74.98-181.020s-26.629-132.667-74.98-181.020zM448 256c0 41.407-13.177 79.794-35.556 111.19l-267.633-267.634c31.396-22.379 69.782-35.556 111.189-35.556 105.869 0 192 86.131 192 192zM64 256c0-41.407 13.177-79.793 35.556-111.189l267.635 267.634c-31.397 22.378-69.784 35.555-111.191 35.555-105.869 0-192-86.131-192-192z"></path>
</svg>
