<svg version="1.1" xmlns="http://www.w3.org/2000/svg" width="200" height="200" viewBox="0 0 200 200">
	<g>
		<path d="M100.002,200c55.138,0,99.996-44.861,99.996-100c0-55.141-44.858-100-99.996-100   C44.861,0-0.001,44.857-0.001,100C0,155.139,44.861,200,100.002,200z M100.002,194.424c-35.465,0-66.413-19.663-82.552-48.651   l44.426-23.388c7.704,13.067,21.888,21.884,38.127,21.884c16.054,0,30.096-8.621,37.853-21.446l44.441,23.389   C166.092,174.961,135.282,194.424,100.002,194.424z M100.002,61.306c21.335,0,38.691,17.356,38.691,38.694   c0,21.338-17.364,38.691-38.691,38.691c-21.339,0-38.696-17.354-38.696-38.691C61.307,78.662,78.663,61.306,100.002,61.306z    M194.422,100c0,14.802-3.427,28.808-9.521,41.287l-44.447-23.4c2.433-5.477,3.812-11.521,3.812-17.89   c0-23.578-18.539-42.852-41.8-44.145V5.636C153.392,6.956,194.422,48.762,194.422,100z M96.895,5.655v50.233   C73.938,57.491,55.73,76.635,55.73,100c0,6.187,1.286,12.081,3.592,17.434l-44.455,23.402C8.911,128.472,5.571,114.619,5.571,100   C5.577,48.972,46.261,7.297,96.895,5.655z"/>
		<rect x="73.403" y="93.983" width="53.196" height="12.032"/>
	</g>
</svg>