<svg version="1.1" xmlns="http://www.w3.org/2000/svg" width="200" height="200" viewBox="0 0 200 200">
	<g>
		<rect x="73.001" y="94.017" width="53.997" height="11.945"/>
		<path d="M10.324,185.445l89.217,14.348l0.458,0.077l89.677-14.43L200,99.998l-10.338-89.765L100,0.129L10.34,10.233   L-0.001,99.986L10.324,185.445z M193.206,99.986L100,191.108L6.795,99.986L100,8.868L193.206,99.986z M6.82,107.775l87.583,85.624   l-78.983-12.702L6.82,107.775z M184.583,180.692l-78.992,12.712l87.587-85.634L184.583,180.692z M193.745,92.746L105.26,6.245   l79.339,8.938L193.745,92.746z M15.41,15.185L94.736,6.25L6.255,92.751L15.41,15.185z"/>
	</g>
</svg>