<svg version="1.1" xmlns="http://www.w3.org/2000/svg" width="200" height="200" viewBox="0 0 200 200">
	<g>
		<path  d="M145.137,59.126h4.498v6.995h5.576V46.556h-5.576v6.994h-4.498V16.328h-5.574v57.667h-15.411v14.824h-7.63    v-14.58h-13.044v14.58h-8.295v-14.58H82.138v14.58h-6.573v-14.58H59.072v14.58h-6.573v-14.58H39.458v36.338h13.041V94.391h6.573    v16.186h16.493V94.391h6.573v16.186h13.044V94.391h8.295v16.186h13.044V94.391h7.63v40.457l17.634,17.637h13.185v31.182h5.577    V73.996H145.14v-14.87H145.137z M154.97,146.907h-10.871l-14.376-14.376V79.57h25.247V146.907z"/>
		<rect fill="#999999" x="147.703" y="16.328" width="5.572" height="7.345"/>
		<rect fill="#999999" x="131.295" y="16.328" width="5.577" height="7.345"/>
	</g>
</svg>