<svg width="1718.2px" height="999.8px" viewBox="0 0 1718.2 999.8" xmlns="http://www.w3.org/2000/svg" xmlns:xlink="http://www.w3.org/1999/xlink">
  <defs/>
  <g>
    <path stroke="none" fill="#FF8C0D" d="M1717.55 -0.05 L1717.65 -0.25 1718.2 -0.1 1718.6 0.35 1719.2 1.55 1719.3 2.25 1718.95 2.85 1709.75 11.35 1010.8 687.7 1008.05 690.5 1005.45 693.4 1003 696.35 1000.75 699.45 998.65 702.65 996.7 705.95 994.9 709.4 993.25 713.05 934.9 850.7 876.4 988.25 871.55 998.95 871.3 999.3 870.9 999.5 870.6 999.55 870 999.4 869.5 999.05 868.3 997.95 867.35 996.7 866.6 995.25 864.7 989.85 762.3 730.55 754.8 711.85 751.1 702.45 746.6 690.65 745.5 688.4 744.25 686.3 742.9 684.35 741.4 682.45 739.75 680.6 737.95 678.85 736 677.15 8.1 61.2 5.75 59.15 3.65 57.1 1.6 54.6 1.1 53.7 1.1 53.25 1.25 52.9 1.5 52.65 1.8 52.45 2.15 52.4 2.55 52.5 9.75 55.7 713.05 398.5 780.95 431.7 848.75 464.95 851.7 466.25 854.4 467.15 856.95 467.6 859.45 467.65 861.9 467.25 864.4 466.45 866.95 465.2 869.6 463.5 1416.95 79.15 1419.7 77.35 1422.45 75.7 1425.25 74.2 1428.1 72.85 1431 71.6 1434 70.5 1437.05 69.55 1440.2 68.7 1574.85 35.15 1709.5 1.5 1713.75 0.6 1717.55 -0.05 M903.9 129.8 L904 129.65 930.9 129.75 934.3 129.85 937.55 130.15 940.65 130.65 943.6 131.35 946.4 132.2 949.2 133.3 951.95 134.6 954.55 136.05 957 137.7 959.35 139.5 961.6 141.5 963.75 143.65 965.8 145.95 967.75 148.4 969.6 151 971.35 153.8 974.25 159 976.8 164.3 979.05 169.7 981 175.2 982.7 180.8 984.2 186.45 985.55 192.15 986.75 197.9 987.85 203.75 988.8 209.65 990.4 221.45 991.6 233.25 992.55 245.1 995 280.65 996 292.5 996.2 295.1 996.25 297.55 996.15 299.85 995.9 302 995.5 304.1 994.95 306.1 994.25 308 993.45 309.7 992.4 311.5 991.25 313.15 989.95 314.75 988.45 316.3 986.8 317.8 985 319.25 980.85 322.15 946.35 344.45 912.05 367.15 843.7 413.05 841.45 414.45 839.25 415.55 836.9 416.35 834.85 416.75 832.6 416.85 830.15 416.5 827.75 415.8 825.25 414.7 812.45 408.55 799.4 402.55 773.35 390.75 773 390.5 772.8 390.15 772.75 389.75 772.85 389.35 794.5 343.45 801.35 328.15 811 305.8 820.45 283.4 839 238.45 841 233 842.7 227.35 844.1 221.65 845.25 215.95 845.7 213.05 845.8 210.65 845.55 208.55 845.3 207.75 844.9 206.9 843.85 205.55 842.3 204.4 840.2 203.4 837.55 202.55 830.2 200.55 822.85 198.85 819.15 198.15 815.5 197.6 811.85 197.2 808.2 196.95 804.55 196.9 800.9 197.05 797.25 197.4 793.6 198 789.9 198.9 786.25 200.05 782.6 201.55 778.55 203.5 777 203.65 776.65 203.6 776.1 203.15 775.95 202.8 775.5 200.55 775.25 197.65 775.3 194.75 775.65 191.9 776.25 189.05 777.05 186.3 778 183.6 779.05 180.9 780.5 177.65 782.1 174.5 783.8 171.5 785.65 168.6 787.6 165.85 789.7 163.2 791.9 160.7 794.25 158.3 796.7 156 799.3 153.85 802 151.8 804.8 149.9 807.7 148.1 810.75 146.4 813.9 144.85 817.15 143.4 824.4 140.6 831.75 138.2 839.15 136.15 846.65 134.45 854.2 133.05 861.8 131.95 869.45 131.1 877.1 130.5 883.8 130.15 890.5 129.95 903.9 129.8"/>
  </g>
</svg>
