<svg width="1482.9px" height="1195.45px" viewBox="0 0 1482.9 1195.45" xmlns="http://www.w3.org/2000/svg" xmlns:xlink="http://www.w3.org/1999/xlink">
  <defs/>
  <g>
    <path stroke="none" fill="#FF8C0D" d="M1159.75 1021.35 L1159.6 1021.45 1160.15 1021.65 1160.5 1022.15 1178.55 1085.9 1178.8 1086.1 1249.25 1086.1 1250 1086.5 1250.5 1087.85 1250.5 1088.45 1250.1 1088.9 1235.8 1097.3 1205.7 1114.3 1190.85 1122.95 1190.75 1123.3 1216.3 1193.7 1216.2 1194.55 1215.15 1195.35 1214.55 1195.35 1214.25 1195.15 1159.35 1145.95 1159 1145.95 1104.55 1194.85 1103.95 1195.1 1102.7 1194.5 1102.25 1193.8 1102.3 1193.35 1127.7 1123.15 1127.6 1122.8 1068.2 1088.9 1067.9 1088.6 1067.75 1088.2 1068.2 1086.75 1068.95 1086.4 1139.45 1086.4 1139.7 1086.2 1157.95 1022.1 1158.5 1021.45 1159.75 1021.35 M745.8 51.75 L745.75 51.85 749.15 52.1 750.8 52.45 753.55 53.5 756.05 55.1 758.1 57 759.1 58.15 760.8 60.55 762.3 63.2 763.5 65.7 763.75 65.85 778.85 66.8 794 68.1 809 69.7 823.85 71.65 838.5 73.95 853 76.55 867.35 79.5 881.55 82.8 895.55 86.4 909.4 90.35 923.1 94.65 936.6 99.3 949.95 104.25 963.15 109.55 976.15 115.2 989 121.2 1001.65 127.55 1014.15 134.25 1026.45 141.3 1038.6 148.7 1050.55 156.45 1062.35 164.55 1073.95 173 1085.4 181.8 1096.65 190.95 1107.75 200.45 1118.65 210.3 1129.4 220.5 1139.95 231.05 1150.3 241.95 1160.5 253.2 1170.5 264.85 1179.3 275.6 1187.8 286.45 1195.95 297.4 1203.8 308.45 1211.35 319.65 1218.6 330.95 1225.5 342.35 1232.1 353.85 1238.4 365.45 1244.4 377.15 1250.05 388.95 1255.4 400.85 1260.45 412.85 1265.2 424.95 1269.6 437.15 1273.7 449.45 1277.5 461.85 1281 474.35 1284.15 486.95 1287 499.65 1289.55 512.45 1291.8 525.35 1293.7 538.35 1295.3 551.45 1296.6 564.65 1297.6 577.95 1298.3 591.35 1298.65 604.85 1298.7 618.4 1298.45 632.05 1297.9 645.8 1297 659.65 1295.8 673.25 1294.3 686.75 1292.5 700.15 1290.35 713.45 1287.9 726.6 1285.15 739.65 1282.1 752.6 1278.75 765.4 1275.1 778.1 1271.15 790.65 1266.9 803.05 1262.35 815.3 1257.55 827.4 1252.45 839.35 1247.1 851.15 1241.45 862.8 1235.55 874.3 1229.4 885.65 1223 896.85 1216.35 907.85 1209.45 918.7 1202.3 929.35 1194.9 939.85 1187.3 950.15 1179.45 960.25 1171.35 970.15 1163.05 979.85 1154.55 989.35 1145.8 998.65 1136.85 1007.75 1127.7 1016.65 1118.35 1025.35 1108.8 1033.8 1099.05 1042.05 1089.1 1050.05 1079 1057.85 1068.7 1065.4 1058.2 1072.75 1047.55 1079.85 1036.75 1086.7 1025.75 1093.3 1014.6 1099.65 1003.3 1105.75 991.85 1111.6 980.25 1117.15 968.5 1122.45 956.6 1127.5 944.55 1132.25 932.4 1136.75 920.1 1140.95 907.7 1144.9 895.15 1148.55 882.5 1151.9 869.75 1154.95 856.9 1157.7 843.95 1160.15 830.9 1162.3 817.75 1164.15 804.5 1165.7 791.15 1166.9 777.7 1167.8 764.2 1168.35 750.6 1168.6 736.95 1168.5 723.45 1168.1 710 1167.35 696.65 1166.3 683.35 1164.9 670.15 1163.2 657.05 1161.2 644 1158.85 631.05 1156.2 618.2 1153.25 605.5 1150 592.9 1146.45 580.4 1142.65 568.05 1138.55 555.8 1134.15 543.7 1129.5 531.7 1124.55 519.85 1119.35 508.15 1113.85 496.6 1108.1 485.2 1102.1 473.95 1095.8 462.85 1089.25 451.9 1082.45 441.15 1075.4 430.55 1068.1 420.1 1060.6 409.85 1052.85 399.8 1044.85 389.9 1036.65 380.2 1028.2 370.7 1019.55 361.4 1010.65 352.3 1001.55 343.45 992.25 334.8 982.75 326.35 973 318.15 963.05 310.15 952.9 302.4 942.6 294.9 932.1 287.6 921.4 280.55 910.5 273.75 899.45 267.2 888.2 260.95 876.8 254.95 865.2 249.2 853.45 243.75 841.55 238.55 829.5 233.65 817.3 229 804.95 224.65 792.45 220.6 779.8 216.85 767 213.4 754.05 210.25 741 207.4 727.8 204.85 714.5 202.65 701.05 200.75 687.5 199.2 673.8 197.95 660 197.05 646.1 196.5 632.1 196.3 618 196.45 603.95 196.95 590 197.8 576.15 199 562.35 200.5 548.65 202.35 535.05 204.55 521.55 207.05 508.15 209.9 494.9 213.05 481.75 216.5 468.7 220.25 455.8 224.3 443.05 228.65 430.4 233.3 417.9 238.25 405.55 243.5 393.35 249.05 381.3 254.85 369.4 260.95 357.65 267.3 346.05 273.95 334.65 280.85 323.4 288 312.35 295.4 301.45 303.1 290.75 311.05 280.25 319.2 269.95 327.6 259.85 336.25 249.95 345.15 240.25 354.25 230.75 363.6 221.5 373.15 212.45 382.95 203.6 392.95 195 403.15 186.65 413.55 178.55 424.15 170.65 434.95 163 445.95 155.6 457.15 148.5 468.5 141.65 480.05 135.05 491.8 128.7 503.7 122.65 515.75 116.85 528 111.35 540.4 106.15 552.95 101.25 565.65 96.65 578.5 92.35 591.5 88.35 604.65 84.65 617.9 81.25 631.3 78.15 644.85 75.4 658.5 72.95 672.3 70.85 686.2 69.1 700.2 67.7 714.3 66.6 728.25 65.9 728.5 65.7 729.7 62.95 731.2 60.25 733.75 56.85 735.8 54.95 738.25 53.4 740.9 52.4 742.5 52.05 745.8 51.75 M770 76.5 L769.85 76.15 765.8 76.4 763.85 76.8 762 77.45 760.15 78.4 758.45 79.65 755.5 82.45 753.1 84.1 750.35 85.25 747.35 85.85 745.85 85.9 743 85.65 740.05 84.8 737.4 83.4 736.2 82.5 733.35 79.85 731.55 78.6 729.75 77.7 727.9 77.05 725.95 76.65 723.95 76.45 719.7 76.45 706.5 77.3 693.35 78.45 680.25 79.95 667.2 81.75 654.2 83.9 641.25 86.4 628.35 89.2 615.5 92.35 607.55 94.45 591.85 99 584.1 101.45 568.75 106.65 561.15 109.4 546.15 115.25 538.75 118.35 524.1 124.85 509.7 131.8 502.6 135.45 488.55 143.05 474.75 151.1 467.95 155.3 454.5 164 441.25 173.1 434.75 177.8 421.9 187.55 409.25 197.75 396.85 208.4 390.75 213.9 384.1 220.05 371.2 232.6 364.95 239 352.8 252.1 346.9 258.75 335.5 272.35 330 279.25 319.35 293.3 314.2 300.45 304.3 314.9 299.55 322.25 290.45 337.1 286.1 344.65 277.75 359.9 273.8 367.6 266.25 383.2 262.7 391.1 255.95 407 252.8 415.05 246.85 431.25 244.1 439.4 239 455.85 236.65 464.15 232.35 480.85 230.4 489.25 226.95 506.15 224.05 523.15 222.8 531.7 220.75 548.85 219.95 557.45 218.75 574.75 218.35 583.4 218 600.8 218.05 609.5 218.55 626.95 219 635.7 220.4 653.2 221.3 661.95 223.55 679.45 224.9 688.2 228.05 705.7 229.85 714.45 234.5 734.4 237.45 745.5 240.65 756.5 244.05 767.4 247.65 778.15 251.5 788.8 255.55 799.35 259.8 809.75 264.3 820.05 269 830.2 273.9 840.25 279 850.15 284.3 859.95 289.8 869.6 295.45 879.1 301.3 888.5 307.35 897.75 313.6 906.85 320 915.8 326.6 924.6 333.35 933.25 340.3 941.75 347.4 950.1 354.65 958.3 362.1 966.35 369.7 974.25 377.45 982 385.35 989.55 393.4 996.95 401.6 1004.2 409.95 1011.25 418.45 1018.15 427.1 1024.85 435.85 1031.4 444.75 1037.75 453.8 1043.95 462.95 1049.95 472.25 1055.75 481.65 1061.35 491.2 1066.8 500.85 1072.05 510.6 1077.1 520.45 1081.95 530.4 1086.6 540.5 1091.05 550.7 1095.3 561 1099.35 571.4 1103.15 581.85 1106.75 592.4 1110.15 603.05 1113.35 613.8 1116.3 624.6 1119.05 635.5 1121.6 646.45 1123.9 657.5 1126 668.6 1127.85 679.8 1129.45 691.05 1130.85 702.35 1132 713.7 1132.9 725.1 1133.6 736.55 1134.05 748.1 1134.25 799.8 1129.9 820.4 1127.65 830.65 1126.2 844.5 1123.9 858.25 1121.25 871.85 1118.3 885.35 1115 898.7 1111.35 911.95 1107.35 925.05 1103 938 1098.3 950.85 1093.25 963.55 1087.8 976.1 1082 988.5 1075.85 1000.75 1069.35 1012.85 1062.45 1024.8 1055.2 1036.6 1047.55 1049.75 1038.55 1062.55 1029.3 1075 1019.85 1087.1 1010.15 1093 1005.25 1104.55 995.25 1115.7 985 1121.15 979.8 1131.75 969.25 1142 958.45 1147 952.95 1156.7 941.85 1166.05 930.5 1175.05 918.95 1183.65 907.15 1187.8 901.2 1195.85 889.1 1203.55 876.75 1207.25 870.5 1214.4 857.85 1217.85 851.45 1224.45 838.45 1230.65 825.25 1233.6 818.55 1239.25 805 1244.55 791.2 1247.05 784.25 1251.8 770.15 1256.2 755.85 1260.2 741.3 1263.85 726.55 1265.55 719.1 1267.15 711.6 1270.05 696.4 1272.55 681 1274.7 665.35 1277.15 642.1 1278.2 627.4 1278.8 612.75 1278.95 598.15 1278.85 590.85 1278.65 583.55 1277.95 569.05 1277.45 561.8 1276.1 547.35 1274.35 532.95 1272.15 518.6 1270.9 511.45 1268.1 497.2 1264.85 483 1261.2 468.85 1259.2 461.8 1254.95 447.75 1250.25 433.8 1245.15 419.9 1240.65 408.4 1235.9 397.05 1230.95 385.9 1225.8 374.9 1220.45 364.1 1214.9 353.45 1209.15 343 1203.2 332.7 1197.05 322.6 1190.7 312.7 1184.15 302.95 1177.4 293.4 1170.4 284 1163.2 274.8 1155.8 265.75 1148.2 256.9 1140.4 248.2 1132.4 239.7 1124.2 231.35 1115.8 223.2 1107.2 215.2 1098.4 207.4 1089.4 199.75 1080.2 192.3 1070.8 185.05 1061.2 177.95 1051.4 171.05 1041.4 164.3 1031.2 157.75 1020.8 151.35 1010.2 145.15 999.4 139.1 986.1 132.05 979.4 128.7 965.9 122.3 959.1 119.25 945.4 113.5 931.6 108.15 917.7 103.25 910.7 100.95 896.6 96.65 882.4 92.75 868.05 89.3 860.85 87.7 846.35 84.85 831.75 82.4 817.05 80.35 809.65 79.45 794.75 78 787.25 77.4 770 76.5 M750.5 95.15 L750.45 95.15 770.2 95.65 789.8 96.9 809.3 98.9 819 100.2 838.25 103.35 857.3 107.2 866.75 109.4 885.5 114.35 904 120 913.15 123.1 931.25 129.8 949.05 137.2 957.85 141.15 975.2 149.6 992.2 158.7 1000.55 163.5 1017 173.6 1033.05 184.35 1040.9 189.95 1056.3 201.6 1071.25 213.9 1078.55 220.3 1092.75 233.5 1106.45 247.3 1113.1 254.45 1126 269.15 1132.25 276.7 1138.35 284.4 1144.3 292.25 1150.1 300.25 1155.75 308.4 1161.25 316.65 1166.6 325.05 1171.8 333.6 1176.85 342.3 1181.7 351.1 1189.55 366.3 1193.25 373.95 1200.2 389.35 1206.6 404.9 1209.55 412.7 1215.05 428.4 1217.55 436.3 1222.15 452.2 1224.2 460.2 1227.85 476.3 1230.9 492.5 1232.2 500.65 1234.35 517.05 1235.2 525.3 1236.45 541.9 1236.85 550.25 1237.15 567 1236.85 583.85 1236.45 592.35 1235.2 609.4 1233.9 622.15 1232.3 634.75 1230.4 647.2 1228.25 659.5 1225.8 671.65 1223.05 683.65 1220 695.5 1216.7 707.2 1213.1 718.75 1209.2 730.15 1205 741.4 1200.55 752.5 1195.8 763.45 1190.75 774.25 1185.45 784.85 1179.85 795.3 1174 805.6 1167.85 815.75 1161.45 825.75 1154.75 835.6 1147.8 845.3 1140.55 854.85 1133.05 864.25 1125.25 873.5 1117.2 882.6 1108.85 891.55 1100.25 900.35 1091.35 909 1082.2 917.5 1072.8 925.85 1063.1 934.05 1053.15 942.1 1046.9 946.95 1034.2 956.35 1027.8 960.85 1014.8 969.5 1008.2 973.65 994.85 981.6 988.1 985.4 974.45 992.65 967.55 996.1 953.6 1002.65 946.55 1005.75 932.3 1011.65 925.1 1014.4 910.55 1019.6 903.2 1022.05 888.35 1026.55 880.85 1028.65 865.75 1032.5 850.45 1035.9 842.75 1037.45 827.15 1040.2 817.9 1041.6 808.65 1042.8 790.15 1044.7 771.65 1045.95 762.4 1046.3 743.9 1046.5 725.35 1046 706.8 1044.8 688.25 1042.95 678.95 1041.75 665.8 1039.8 652.75 1037.5 639.85 1034.9 627.05 1031.95 614.4 1028.65 601.85 1025.05 589.4 1021.1 577.1 1016.85 564.9 1012.25 552.85 1007.35 540.9 1002.1 529.05 996.55 517.35 990.65 505.75 984.45 494.25 977.9 482.95 971.05 479.15 968.95 478.85 968.95 472.9 972.15 466.9 975 461.05 977.4 455.3 979.35 449.7 980.85 446.95 981.45 441.55 982.3 436.25 982.7 431.05 982.65 426 982.15 421.05 981.2 418.6 980.55 413.8 978.95 409.05 976.9 404.45 974.45 399.9 971.55 395.45 968.2 393.25 966.35 389.15 962.55 385.5 958.6 382.3 954.45 379.55 950.1 378.35 947.85 376.25 943.2 374.55 938.35 373.3 933.3 372.85 930.7 372.25 925.3 372.1 922.5 372.15 916.7 372.6 910.65 373.5 904.35 374.8 897.75 376.5 890.85 378.55 883.95 378.5 883.65 368.25 871.7 363 865.25 352.85 852.2 347.95 845.6 338.55 832.25 334.05 825.5 325.4 811.8 321.25 804.85 313.35 790.8 309.6 783.7 302.45 769.3 299.05 762 292.7 747.25 289.7 739.8 284.1 724.7 281.5 717.05 276.7 701.6 274.5 693.8 270.5 678 267.05 661.95 265.5 653.85 262.85 637.45 260.75 620.85 259.25 604.3 258.35 587.8 258.1 579.6 258.05 563.2 258.6 546.9 259.1 538.8 260.5 522.65 261.4 514.6 263.6 498.65 264.9 490.7 267.95 474.95 269.65 467.15 273.5 451.6 275.6 443.9 280.25 428.65 282.75 421.1 288.15 406.1 291.05 398.7 297.2 384 300.45 376.75 307.35 362.4 311 355.3 318.65 341.3 322.65 334.4 331 320.8 339.8 307.5 344.35 300.95 353.85 288.05 358.75 281.7 368.9 269.25 374.15 263.15 384.95 251.2 390.5 245.35 401.95 233.9 407.8 228.3 419.85 217.4 426.05 212.1 438.7 201.75 445.2 196.75 458.45 187 469.45 179.4 480.6 172.15 491.85 165.2 503.25 158.6 514.8 152.3 526.5 146.35 538.3 140.7 550.25 135.4 562.35 130.4 574.6 125.75 587 121.4 599.5 117.4 612.15 113.7 624.95 110.35 637.9 107.3 650.95 104.55 660.9 102.7 670.9 101.05 680.9 99.6 700.85 97.35 720.75 95.9 730.7 95.45 750.5 95.15 M744 104.9 L743.7 104.45 728.2 104.8 720.45 105.15 704.95 106.2 697.2 106.9 681.7 108.7 673.95 109.8 666.2 111 651.2 113.7 636.75 116.7 622.45 120.1 608.3 123.9 601.3 125.95 587.4 130.35 580.55 132.7 566.95 137.7 560.2 140.35 546.9 146 540.3 149 527.25 155.25 520.8 158.55 508.05 165.45 501.75 169.05 489.3 176.6 483.15 180.55 471.05 188.8 465.05 193.1 453.25 202 447.45 206.6 435.75 216.3 424.45 226.2 413.55 236.25 403.05 246.5 392.95 256.9 383.25 267.5 378.55 272.85 369.45 283.7 365.05 289.2 360.75 294.75 352.45 305.95 344.55 317.35 337.05 328.9 329.95 340.65 326.55 346.6 320.1 358.6 317 364.65 311.15 376.9 308.4 383.1 303.15 395.65 298.35 408.35 293.95 421.25 291.9 427.75 288.15 440.9 286.4 447.55 283.25 461 281.85 467.8 279.35 481.5 278.25 488.4 276.4 502.4 275.65 509.45 274.45 523.7 274 530.9 273.45 545.4 273.3 552.75 273.35 567.55 273.55 575 274.3 590.05 274.85 597.65 276.25 613.1 277.15 620.9 279.4 636.3 282.25 651.5 283.9 659 287.55 673.85 289.6 681.2 294.05 695.75 296.5 702.95 301.75 717.2 307.55 731.25 310.65 738.2 317.2 751.95 320.65 758.75 327.95 772.2 331.8 778.85 339.8 792 344 798.5 352.7 811.35 357.25 817.7 366.65 830.25 373.65 838.95 395.1 864 395.45 864.05 401.3 860.95 407.25 858.15 413.1 855.8 418.8 853.9 424.4 852.45 427.15 851.9 432.5 851.1 437.9 850.7 443.05 850.75 448.15 851.25 450.65 851.65 455.55 852.8 460.35 854.4 465.1 856.45 469.65 858.85 474.2 861.75 478.6 865.05 482.7 868.6 484.6 870.45 488.05 874.25 491.25 878.35 494 882.6 496.35 887.05 498.35 891.7 499.95 896.5 501.15 901.5 501.6 904.05 502.2 909.25 502.4 914.8 502.2 920.4 501.65 926.2 500.7 932.2 499.35 938.35 497.65 944.4 497.7 944.7 499.4 946.35 502.85 948.45 517.1 956.25 527.85 961.7 538.65 966.9 549.5 971.8 560.35 976.45 571.25 980.8 582.2 984.9 593.15 988.7 604.15 992.25 615.2 995.5 626.3 998.5 637.4 1001.25 648.55 1003.7 659.75 1005.9 671 1007.8 682.25 1009.45 693.55 1010.8 704.9 1011.9 716.25 1012.7 727.65 1013.25 739.1 1013.5 750.55 1013.5 762.05 1013.2 773.6 1012.65 785.2 1011.8 796.8 1010.7 808.45 1009.3 820.1 1007.65 831.8 1005.7 843.55 1003.5 855.35 1001 867.15 998.25 876.85 995.75 896 990.25 905.4 987.25 923.9 980.75 942 973.55 950.9 969.7 959.65 965.65 968.3 961.45 976.85 957.05 985.3 952.5 993.65 947.8 1001.9 942.9 1010 937.85 1018 932.6 1025.9 927.2 1033.7 921.6 1041.35 915.85 1048.9 909.9 1056.35 903.8 1063.7 897.5 1070.9 891.05 1078 884.45 1085 877.65 1091.9 870.7 1098.65 863.55 1105.3 856.25 1111.85 848.75 1118.25 841.1 1124.55 833.25 1131.75 823.9 1138.7 814.45 1145.35 804.9 1151.7 795.3 1157.8 785.6 1163.6 775.85 1169.15 766 1174.4 756.05 1179.4 746.05 1184.1 735.95 1188.5 725.8 1192.65 715.55 1196.5 705.25 1200.1 694.85 1203.4 684.4 1206.4 673.85 1209.15 663.25 1211.6 652.55 1213.75 641.8 1215.65 630.95 1217.25 620.05 1218.55 609.05 1219.6 598 1220.35 586.85 1220.85 575.65 1221.05 564.35 1220.95 553 1220.6 541.55 1219.95 530.05 1219 518.45 1217.8 506.8 1216.3 495.05 1215.1 486.95 1212.25 470.9 1208.85 455.1 1206.95 447.3 1202.7 431.9 1200.35 424.3 1195.25 409.25 1192.5 401.8 1186.6 387.15 1180.15 372.75 1176.7 365.65 1169.45 351.6 1165.6 344.65 1157.55 330.95 1148.95 317.5 1144.45 310.9 1139.85 304.35 1130.25 291.4 1125.25 285 1114.9 272.45 1109.55 266.25 1098.7 254.35 1093.15 248.55 1081.8 237.3 1076 231.85 1064.2 221.3 1058.2 216.2 1045.95 206.3 1039.7 201.5 1027.05 192.3 1020.65 187.85 1007.6 179.3 1001 175.2 987.6 167.35 980.85 163.6 967.15 156.45 960.2 153.05 946.2 146.55 939.15 143.5 924.85 137.7 917.65 135 903.15 129.9 895.85 127.55 881.1 123.15 873.7 121.15 858.75 117.45 851.25 115.8 836.15 112.8 828.55 111.5 813.3 109.2 798 107.4 790.3 106.7 774.9 105.6 767.2 105.25 751.75 104.9 744 104.9 M1371.35 816.15 L1372.45 816.35 1372.95 816.95 1387.2 867.05 1387.45 867.25 1442.45 867.25 1443.2 867.65 1443.65 869.6 1443.2 870.2 1397.05 896.7 1396.95 897 1416.8 952.1 1416.85 952.55 1416.4 953.25 1415.15 953.85 1414.55 953.6 1371.9 915.35 1371.55 915.35 1327.95 954.1 1327.35 954.35 1326.9 954.25 1326.3 953.8 1326.15 953.4 1326.2 952.95 1346.35 897.05 1346.25 896.7 1299.85 870.2 1299.4 869.6 1299.55 868.3 1299.85 867.75 1300.45 867.55 1355.65 867.55 1355.9 867.35 1370.45 816.85 1370.8 816.35 1371.35 816.15 M129.5 863.65 L129.4 863.6 129.85 863.75 130.2 864.1 133.55 870.05 133.8 870.2 141.2 870.95 141.55 871.05 142 871.55 141.95 872.3 136.25 877.1 136.15 877.4 137.6 884.85 137.4 885.6 137.1 885.85 136.7 885.95 136.2 885.8 129.85 881.85 129.55 881.85 123.45 886.1 122.9 886.25 122.5 886.15 122 885.55 122 885.15 123.65 877.55 123.55 877.25 117.7 872.75 117.45 872.45 117.4 871.7 117.85 871.2 118.2 871.1 125.9 870.2 126.15 870 128.65 864.2 128.95 863.8 129.5 863.65 M750.9 156.5 L750.8 156.35 764.2 156.7 770.85 157.1 784.05 158.25 797.15 159.9 803.65 160.9 816.5 163.25 829.2 166.1 835.5 167.7 847.95 171.25 854.1 173.2 866.3 177.4 872.3 179.7 884.2 184.6 895.9 189.9 901.65 192.7 913 198.65 924.1 205 929.55 208.35 940.25 215.3 945.5 218.95 955.8 226.5 960.85 230.4 970.75 238.5 980.35 247 985 251.35 994.1 260.35 1002.9 269.7 1007.15 274.5 1015.4 284.35 1019.4 289.4 1027.15 299.75 1030.9 305.05 1038.05 315.85 1044.85 326.95 1048.1 332.6 1056.2 347.9 1060.8 357.55 1065.1 367.25 1069.05 377.05 1072.7 386.95 1076 396.9 1079 406.95 1081.7 417.05 1084.05 427.25 1086.1 437.55 1087.85 447.9 1089.25 458.35 1090.35 468.85 1091.15 479.45 1091.6 490.1 1091.75 500.85 1091.65 509.85 1091.3 518.8 1090.7 527.7 1089.9 536.55 1088.85 545.35 1087.6 554.1 1086.1 562.85 1084.4 571.55 1082.45 580.2 1080.25 588.8 1077.85 597.35 1075.2 605.85 1072.35 614.3 1069.25 622.7 1065.9 631.05 1058.1 649.1 1058.15 649.4 1061.3 654.4 1063.95 659.65 1065.95 664.95 1066.7 667.65 1067.75 673.05 1068.1 678.55 1067.75 684.15 1067.3 687 1065.9 692.75 1064.5 696.7 1062.8 700.5 1060.85 704 1058.6 707.35 1056.05 710.55 1053.3 713.4 1050.3 716 1047.2 718.3 1043.85 720.35 1040.3 722.1 1036.5 723.6 1032.65 724.75 1028.7 725.55 1024.75 726 1020.6 726.1 1014.2 725.65 1012.2 725.7 1010.35 726 1008.65 726.5 1007 727.25 1005.45 728.25 1003.9 729.5 992.15 741.75 981.65 751.95 976.3 756.85 965.4 766.3 959.85 770.8 948.5 779.45 936.85 787.55 930.9 791.4 918.85 798.75 912.7 802.2 900.2 808.7 893.85 811.75 880.9 817.45 867.65 822.6 860.95 824.95 847.3 829.3 833.35 833.05 826.25 834.7 811.85 837.6 794.85 840.3 785.2 841.5 775.6 842.45 766.05 843.15 756.6 843.6 747.2 843.8 737.85 843.75 728.55 843.45 719.35 842.9 710.2 842.1 701.1 841.1 692.05 839.85 683.1 838.35 674.2 836.6 665.35 834.6 656.6 832.35 647.9 829.85 639.25 827.1 630.7 824.1 622.2 820.85 613.8 817.35 605.45 813.6 597.15 809.6 588.95 805.35 580.8 800.9 572.75 796.2 564.75 791.25 556.8 786.05 548.95 780.6 541.15 774.9 533.45 768.95 519.8 757.65 508.2 747.15 502.6 741.75 491.85 730.7 481.7 719.3 476.85 713.45 467.6 701.5 458.95 689.2 450.9 676.55 443.5 663.55 436.7 650.2 430.5 636.5 424.95 622.45 420 608.1 415.7 593.4 412.05 578.35 409.05 563 407.8 555.2 406.3 544.35 405.1 533.6 404.2 522.9 403.6 512.3 403.3 501.8 403.3 491.4 403.6 481.1 404.2 470.9 405.1 460.8 406.25 450.75 407.7 440.8 409.45 430.95 411.5 421.2 413.85 411.55 416.5 402 419.45 392.55 422.7 383.2 426.25 373.95 430.1 364.8 434.25 355.75 438.7 346.8 443.4 337.95 448.4 329.2 453.7 320.55 459.3 312 465.2 303.55 471.4 295.2 477.9 286.95 484.7 278.8 491.8 270.75 499.15 262.8 511.95 249.95 522.4 240.3 533.1 231.2 544.1 222.6 549.7 218.5 561.1 210.7 572.75 203.45 578.7 200 590.75 193.5 603.05 187.55 609.3 184.75 622 179.55 634.95 174.9 648.15 170.75 661.6 167.15 668.4 165.55 682.2 162.7 696.25 160.35 703.35 159.35 717.05 157.85 730.65 156.9 737.45 156.65 750.9 156.5 M748.1 164.75 L748.15 164.55 734.75 164.8 728.05 165.15 714.6 166.2 701.15 167.8 694.45 168.8 681.05 171.2 667.7 174.15 661.05 175.85 647.75 179.65 634.55 184 621.45 188.9 610.2 193.6 604.7 196.1 593.85 201.35 588.5 204.1 578 209.9 572.85 212.95 562.75 219.3 552.9 226 548.1 229.45 538.65 236.6 534.05 240.3 525.05 247.95 520.65 251.9 512.1 260 503.85 268.4 499.85 272.7 492.1 281.5 488.35 286 481.05 295.15 474.1 304.6 470.75 309.4 467.5 314.25 461.25 324.15 455.35 334.25 452.55 339.4 447.2 349.8 444.65 355.1 439.85 365.8 435.45 376.7 433.4 382.2 429.55 393.35 427.8 399 424.55 410.4 423.1 416.15 420.5 427.75 418.3 439.45 417.35 445.35 415.8 457.25 414.7 469.25 414.3 475.3 413.85 487.8 413.85 500.6 414 506.95 414.7 519.6 415.2 525.9 416.6 538.35 417.45 544.55 419.55 556.8 422.15 568.95 423.6 574.95 426.9 586.85 430.7 598.65 432.8 604.5 437.35 616.05 442.4 627.45 445.1 633.1 450.9 644.25 457.25 655.25 460.6 660.7 467.7 671.4 474.75 681.3 482 690.85 489.4 700.05 497 708.95 504.75 717.5 512.65 725.7 520.75 733.55 529 741.05 537.45 748.25 546.05 755.1 554.8 761.6 563.7 767.75 572.8 773.6 582.05 779.1 591.45 784.25 601.05 789.05 610.8 793.5 620.7 797.6 630.75 801.4 641 804.85 651.4 807.95 661.95 810.7 672.65 813.1 683.55 815.15 694.6 816.9 705.8 818.3 717.15 819.35 728.65 820.05 740.3 820.4 752.15 820.4 764.15 820.05 776.3 819.4 791.25 818.05 805.9 816.05 820.3 813.4 834.45 810.15 848.3 806.25 855.15 804.1 868.6 799.3 881.8 793.9 894.75 787.9 907.4 781.3 913.65 777.8 925.95 770.35 937.95 762.3 949.7 753.7 961.2 744.55 966.85 739.75 977.95 729.75 983.4 724.55 987.25 720.55 990.75 716.8 990.75 716.45 987.4 712.35 984.25 708.05 981.5 703.8 979.15 699.6 977.25 695.55 975.7 691.5 974.5 687.4 973.75 683.5 973.35 679.55 973.35 675.55 973.7 671.7 974.45 667.85 975.6 664.05 977.1 660.35 979.05 656.5 981.35 652.75 983.9 649.15 986.7 645.8 989.55 642.95 992.65 640.4 996.05 638.15 999.55 636.3 1003.25 634.85 1007.15 633.75 1011.25 633 1015.55 632.6 1020.1 632.55 1024.9 632.85 1029.9 633.5 1035.15 634.5 1040.7 635.85 1046.15 637.45 1046.45 637.3 1050.9 628.7 1053.75 622.4 1059.05 609.7 1061.5 603.3 1065.95 590.35 1067.95 583.85 1071.55 570.7 1074.55 557.4 1075.8 550.7 1077.9 537.15 1079.35 523.45 1079.95 515.4 1080.6 499.45 1080.55 483.7 1080.25 475.9 1079.15 460.45 1077.35 445.2 1074.85 430.15 1071.65 415.3 1067.75 400.7 1063.1 386.3 1057.75 372.1 1051.7 358.1 1048.4 351.2 1041.25 337.55 1033.4 324.1 1024.8 310.9 1015.45 297.9 1006.15 286.1 997.15 275.6 992.5 270.5 982.95 260.7 973.05 251.35 962.85 242.45 952.35 234 947 229.95 936.05 222.2 924.85 214.95 919.15 211.5 907.55 204.95 895.75 198.85 889.75 196 877.6 190.65 865.25 185.8 859 183.55 846.4 179.45 833.65 175.85 820.75 172.75 814.25 171.4 801.2 169.05 794.65 168.05 781.45 166.45 768.15 165.4 761.5 165.05 748.1 164.75 M78.65 722.5 L78.55 722.55 79.1 722.75 79.45 723.25 87.05 748 87.3 748.2 114.35 748.2 114.65 748.25 115.1 748.65 115.4 750.15 114.95 750.75 92.5 764.05 92.4 764.35 101.5 791.1 101.55 791.55 101.4 791.95 100.55 792.65 100 792.85 99.4 792.6 78.7 774.2 78.35 774.2 56.8 793.15 56.2 793.4 55.7 793.25 55.05 792.75 54.9 792.35 54.95 791.9 64.55 764.45 64.45 764.15 42.1 750.7 41.65 750.1 41.8 749.1 42.15 748.6 42.7 748.4 69.45 748.4 69.7 748.2 77.35 723.25 77.6 722.85 78.65 722.5 M747.2 215.75 L747.15 216 759.6 216.25 771.9 217.1 784.05 218.55 796.05 220.6 807.9 223.2 819.55 226.35 831 230.05 842.2 234.3 853.2 239.05 863.9 244.35 874.35 250.15 884.5 256.45 894.35 263.2 903.85 270.45 913 278.15 921.8 286.3 930.2 294.9 938.2 303.9 945.75 313.3 952.9 323.1 959.6 333.3 965.8 343.9 971.5 354.85 976.7 366.15 981.35 377.8 985.5 389.8 989.05 402.15 990.6 408.45 992.1 415.45 994.45 429.55 998.95 465.15 998.55 476.6 997.65 487.95 996.25 499.2 995.35 504.75 993.2 515.75 990.6 526.6 987.55 537.25 984.05 547.75 982.1 552.9 977.9 563.05 973.3 573 968.3 582.7 962.9 592.15 960.05 596.8 954.05 605.9 947.65 614.7 940.9 623.2 937.4 627.35 930.1 635.4 922.5 643.15 914.55 650.55 910.45 654.15 902 661.05 893.25 667.6 884.2 673.75 874.9 679.55 870.15 682.3 860.4 687.5 850.4 692.25 840.15 696.6 829.7 700.5 819 703.95 808.1 706.9 796.95 709.4 785.6 711.4 774.05 712.9 762.6 713.9 756.9 714.2 745.6 714.45 740 714.4 728.85 713.9 723.3 713.45 712.3 712.15 706.85 711.3 696 709.25 685.25 706.7 674.6 703.65 669.3 701.95 658.8 698.15 653.6 696.05 643.3 691.55 638.2 689.1 628.05 683.85 618 678.1 609.85 673.1 606.55 671.45 604.85 670.85 603.05 670.45 601.15 670.25 596.9 670.35 594.65 670 592.7 669.3 590.95 668.25 589.6 667 588.3 665.2 587.45 663.45 586.4 659.1 585.7 657.15 584.75 655.4 583.65 653.8 581.05 650.95 570.1 640.4 562.5 632.4 558.85 628.3 551.85 619.95 548.5 615.7 542.1 607.05 536.15 598.2 533.3 593.7 527.95 584.5 523.05 575.1 518.55 565.45 514.5 555.6 512.65 550.6 509.25 540.45 506.25 530.05 504.9 524.75 502.55 514.05 500.65 503.1 499.85 497.55 498.55 485.25 497.85 473.05 497.75 461 498.2 449.05 499.2 437.25 500.75 425.6 502.85 414.15 505.45 402.85 508.55 391.75 512.15 380.9 514.15 375.55 518.5 365 523.3 354.7 528.55 344.7 534.2 334.95 540.3 325.5 546.8 316.35 553.7 307.5 561 298.95 564.8 294.8 572.65 286.8 576.7 282.9 585.05 275.45 593.75 268.35 602.75 261.65 612.05 255.35 621.65 249.45 631.55 244 641.7 239 652.1 234.45 662.75 230.35 673.65 226.75 684.75 223.65 696.75 220.9 709.45 218.65 722.1 217.05 734.7 216.1 747.2 215.75 M745 221.65 L744.95 221.7 734.05 222.05 723.05 222.9 711.95 224.2 700.2 226.15 688.65 228.65 677.3 231.7 666.2 235.3 655.35 239.4 644.75 244 634.4 249.05 624.35 254.6 614.6 260.6 605.15 267.05 596.05 273.9 587.3 281.15 583.05 284.95 574.85 292.8 567 301 563.25 305.25 556 314 549.2 323.05 542.8 332.45 536.85 342.15 531.4 352.1 526.4 362.35 521.9 372.85 517.9 383.6 514.45 394.55 511.5 405.75 509.1 417.15 507.3 428.7 506.05 440.45 505.4 452.35 505.35 464.35 505.95 476.5 507.2 488.75 508.9 500.05 511.05 511.1 513.7 521.9 516.8 532.45 520.35 542.75 522.3 547.8 526.55 557.75 531.25 567.45 536.4 576.9 542 586.1 548.05 595.05 554.55 603.75 561.5 612.2 568.9 620.45 572.75 624.5 580.8 632.4 589.2 640 591.65 641.9 592.9 642.65 595.5 643.75 596.95 644.1 598.45 644.3 601.95 644.4 603.8 644.75 605.55 645.35 607.25 646.3 608.6 647.45 609.75 648.8 610.65 650.4 611.9 654.1 612.75 655.8 613.8 657.3 615.05 658.65 617.85 660.85 628 666.85 635.05 670.6 642.2 674.1 649.45 677.35 656.8 680.35 664.3 683.15 671.95 685.7 679.75 688 687.75 690.05 695.9 691.85 704.3 693.45 712.9 694.8 721.7 695.9 730.75 696.8 740.05 697.45 749.6 697.85 755.1 697.85 766.55 697.3 778.5 696.05 790.9 694.05 803.6 691.3 816.55 687.8 829.6 683.5 842.65 678.45 849.15 675.6 859.6 670.55 869.7 665.05 879.45 659.15 888.85 652.8 897.85 646.1 906.5 639 914.75 631.55 922.6 623.75 930.05 615.65 937.1 607.25 943.75 598.55 949.95 589.6 955.75 580.35 961.1 570.9 966 561.2 970.45 551.3 972.5 546.3 974.45 541.25 978 531 981.05 520.6 983.65 510.05 985.75 499.4 987.35 488.65 988.45 477.8 989.05 466.85 989.15 455.85 988.7 444.85 987.75 433.8 986.25 422.75 984.2 411.7 981.6 400.7 978.45 389.75 974.75 378.85 972.95 374.05 969 364.6 964.65 355.4 959.95 346.4 954.9 337.65 952.25 333.35 946.65 324.95 940.7 316.8 934.45 308.95 927.85 301.35 920.95 294.05 917.4 290.5 913.75 287.05 906.25 280.35 898.5 273.95 890.45 267.85 886.35 264.95 877.95 259.4 869.3 254.15 864.9 251.65 855.9 246.95 846.7 242.6 837.3 238.65 827.7 235.1 822.8 233.45 812.9 230.5 802.85 227.95 792.65 225.8 782.3 224.1 777.05 223.4 766.5 222.35 755.8 221.75 745 221.65 M1433.1 595.8 L1433.2 595.8 1434.05 595.95 1434.55 596.55 1444.85 632 1445.1 632.2 1482.1 632.2 1482.6 632.35 1482.95 632.75 1482.9 633.55 1482.3 634.15 1480.45 635.8 1476.6 638.8 1472.6 641.5 1455.95 651.45 1452.1 654.1 1452 654.4 1465.6 692.6 1465.6 693.2 1465.2 693.7 1464.4 694.2 1463.9 694.35 1463.3 694.1 1433.55 667.5 1433.2 667.5 1402.6 694.45 1402 694.7 1401.6 694.6 1400.8 694.1 1400.55 693.5 1400.6 693.15 1414.7 654.15 1414.6 653.8 1381.9 634.9 1381.55 634.6 1381.45 633.8 1381.9 633.3 1382.25 633.2 1385.55 632.85 1391 632.55 1411.8 632.5 1416.85 632.3 1421.7 631.8 1421.95 631.6 1432.2 596.5 1432.55 596 1433.1 595.8 M748.2 260.55 L748.3 260.6 748.85 260.8 749.2 261.3 786.9 412.25 787.1 412.45 939.1 450.35 939.6 450.65 939.85 451.4 939.6 452.1 939.15 452.35 931.3 454.7 864.3 471.45 797.25 487.95 794.6 488.7 792.3 489.6 790.35 490.7 788.6 492.1 787.2 493.75 786 495.7 785.05 498 784.25 500.7 768.1 566.9 751.6 633 750.9 635.4 750 637.8 748.8 640.1 748.05 641.25 747.7 641.55 747.25 641.65 746.7 641.45 746.35 641 743.7 632.4 727.2 566.35 710.95 500.25 710.3 497.85 709.5 495.75 708.55 493.95 707.35 492.35 705.9 491.05 704.15 489.95 702.1 489.05 699.65 488.35 631.5 471.6 563.45 454.55 556.55 452.45 556.1 452.15 555.9 451.35 556.25 450.45 556.7 450.2 708.3 412.45 708.5 412.25 746.15 261.3 746.7 260.65 748.2 260.55 M52.05 518.65 L51.95 518.35 52.5 518.55 52.85 519.05 57.85 535.65 62.95 554.05 63.2 554.25 102.45 554.25 103 554.45 103.35 554.95 103.65 556.3 103.2 556.95 70.45 576.05 70.35 576.4 84.4 615.7 84.45 616.15 84.3 616.55 83.45 617.15 82.85 617.15 82.55 617 51.85 589.7 51.5 589.7 21.45 616.6 20.85 616.85 19.85 616.45 19.5 616.15 19.35 615.75 19.4 615.3 33.1 576.45 33 576.15 0.5 557.25 0.05 556.65 0.35 555.35 1.1 554.95 39.9 554.95 40.15 554.75 50.5 519.35 51.05 518.75 52.05 518.65 M1406.75 423.5 L1406.65 423.45 1407.2 423.65 1407.55 424.15 1414.8 448.3 1415.05 448.5 1442.1 448.5 1442.65 448.7 1443 449.2 1443.35 450.6 1443.15 451.15 1442.9 451.35 1420.25 464.5 1420.15 464.8 1429.75 492.2 1429.65 493 1428.7 493.75 1428.05 493.75 1427.75 493.6 1406.55 474.8 1406.2 474.8 1385.2 493 1384.6 493.25 1383.5 492.7 1383.15 492.2 1383.15 491.6 1392.4 465 1392.3 464.7 1369.75 451.15 1369.4 450.75 1369.3 450.2 1369.5 449.35 1370 448.95 1370.35 448.9 1397.5 448.9 1397.75 448.7 1405 424.3 1405.5 423.7 1406.75 423.5 M108 249.15 L108 249.25 108.85 249.3 109.4 249.95 123.85 300.45 124.1 300.65 177.75 300.65 178.3 300.8 178.65 301.25 178.65 301.8 178.3 302.25 174.65 305 169 308.9 157.35 316.15 133.7 330.05 133.6 330.35 152.65 383.25 152.7 383.8 152.15 384.45 151.4 384.4 149.65 383.55 146.5 381.7 143.45 379.55 140.6 377.3 108.3 348.6 107.95 348.6 64.85 387.25 64.25 387.5 63.8 387.4 62.95 386.85 62.8 386.45 62.85 386 82.9 330.4 82.8 330.1 36.25 303.3 35.8 302.65 35.85 302.2 36.25 301.05 37 300.65 92.35 300.65 92.6 300.45 107.1 249.85 107.45 249.35 108 249.15 M1352.6 336.15 L1352.5 336.1 1352.95 336.2 1353.3 336.55 1354.9 339.1 1355.6 339.8 1357.15 340.9 1359 341.75 1361.05 342.25 1364.2 342.55 1364.7 343.05 1364.7 343.85 1364.45 344.15 1358.85 348.75 1358.75 349.05 1360.6 356.75 1360.45 357.55 1360 357.85 1359.2 357.75 1352.95 353.45 1352.65 353.45 1346.65 357.2 1346.15 357.35 1345.75 357.25 1345.45 357 1345.25 356.25 1346.45 348.85 1346.35 348.55 1340.7 344.1 1340.65 343.4 1341.05 342.9 1346.05 341.9 1348.7 340.75 1350.15 339.5 1350.75 338.75 1352 336.35 1352.6 336.15 M325 -0.1 L325.05 0 326.15 0.15 326.7 0.75 344.65 64.25 344.9 64.45 416.3 64.45 417 64.8 417.2 65.6 416.95 66.05 415.75 67.2 413.1 69.35 410.35 71.25 407.7 72.85 400.05 77 392.75 81.3 378.05 89.55 357 101.6 356.9 101.95 382.4 172.2 382.45 172.7 381.65 173.7 381 173.95 380.4 173.7 368 162.75 325.6 124.65 325.25 124.65 270.25 173.9 269.65 174.15 269.2 174.05 268.4 173.5 268.2 172.9 268.25 172.6 293.9 101.95 293.8 101.6 234.7 67.85 234.25 67.15 234.4 66 234.7 65.45 235.3 65.25 305.5 65.25 305.75 65.05 324.1 0.6 324.45 0.1 325 -0.1"/>
  </g>
</svg>
