<?xml version="1.0" encoding="utf-8"?>
<!-- Generator: Adobe Illustrator 16.0.0, SVG Export Plug-In . SVG Version: 6.00 Build 0)  -->
<!DOCTYPE svg PUBLIC "-//W3C//DTD SVG 1.1//EN" "http://www.w3.org/Graphics/SVG/1.1/DTD/svg11.dtd">
<svg version="1.1" xmlns="http://www.w3.org/2000/svg" xmlns:xlink="http://www.w3.org/1999/xlink" x="0px" y="0px"
	 width="631.072px" height="713.591px" viewBox="0 0 631.072 713.591" enable-background="new 0 0 631.072 713.591"
	 xml:space="preserve">
<g id="Layer_2">
	<g>
		
			<rect x="460.344" y="668.509" transform="matrix(0.7399 0.6727 -0.6727 0.7399 586.8318 -155.8918)" fill="#FF8C0D" width="69.376" height="24.999"/>
	</g>
	<g>
		
			<rect x="499.816" y="630.511" transform="matrix(0.8742 0.4856 -0.4856 0.8742 379.9255 -180.1477)" fill="#FF8C0D" width="75.501" height="24.999"/>
	</g>
	<g>
		
			<rect x="537.078" y="590.363" transform="matrix(0.9477 0.319 -0.319 0.9477 222.2531 -151.1744)" fill="#FF8C0D" width="71.047" height="25"/>
	</g>
	<g>
		
			<rect x="561.364" y="544.916" transform="matrix(0.9741 0.2263 -0.2263 0.9741 141.5892 -120.2454)" fill="#FF8C0D" width="67.758" height="25"/>
	</g>
	<g>
		
			<rect x="113.454" y="633.977" transform="matrix(0.6727 0.7399 -0.7399 0.6727 536.0002 125.674)" fill="#FF8C0D" width="24.999" height="69.375"/>
	</g>
	<g>
		
			<rect x="72.787" y="594.581" transform="matrix(0.4857 0.8741 -0.8741 0.4857 596.6155 250.6765)" fill="#FF8C0D" width="25" height="75.501"/>
	</g>
	<g>
		
			<rect x="43.454" y="554.475" transform="matrix(0.319 0.9477 -0.9477 0.319 597.2715 348.7429)" fill="#FF8C0D" width="25" height="71.046"/>
	</g>
	<g>
		
			<rect x="23.329" y="507.12" transform="matrix(0.2263 0.9741 -0.9741 0.2263 554.6862 383.6775)" fill="#FF8C0D" width="25" height="67.758"/>
	</g>
	<path fill="#FF8C0D" d="M556.439,425.748c-13.466-24.188-32.583-45.79-56.821-64.205c-30.562-23.22-67.327-39.855-107.331-48.986
		v25.737c93.31,23.32,160.681,90.053,160.681,168.752c0,98.096-104.668,177.619-233.785,177.619
		c-129.115,0-233.784-79.523-233.784-177.619c0-75.918,62.696-140.699,150.889-166.118v-25.964
		c-36.209,9.508-69.489,25.266-97.539,46.578c-24.238,18.415-43.355,40.017-56.821,64.205
		c-14.286,25.66-21.529,53.014-21.529,81.299c0,28.284,7.243,55.637,21.529,81.298c13.465,24.188,32.583,45.789,56.821,64.204
		c48.479,36.832,112.559,57.117,180.435,57.117c67.876,0,131.956-20.285,180.436-57.117c24.238-18.415,43.355-40.017,56.821-64.204
		c14.285-25.661,21.528-53.014,21.528-81.298C577.968,478.761,570.725,451.408,556.439,425.748z"/>
	<path fill="#FF8C0D" d="M473.97,427.082c-8.958-16.091-21.621-30.42-37.64-42.591c-13.129-9.975-27.996-18.079-44.043-24.152
		v27.053c42.591,19.056,71.178,54.248,71.178,94.519c0,60.541-64.597,109.619-144.282,109.619
		c-79.684,0-144.281-49.078-144.281-109.619c0-37.101,24.263-69.892,61.386-89.727v-27.819c-12.323,5.48-23.835,12.212-34.25,20.125
		c-16.019,12.171-28.683,26.5-37.64,42.591c-9.618,17.276-14.495,35.724-14.495,54.829c0,19.104,4.877,37.552,14.495,54.829
		c8.958,16.091,21.622,30.42,37.64,42.59c31.574,23.989,73.178,37.2,117.146,37.2c43.969,0,85.572-13.211,117.147-37.2
		c16.019-12.17,28.682-26.499,37.64-42.59c9.618-17.277,14.495-35.725,14.495-54.829
		C488.465,462.805,483.588,444.358,473.97,427.082z"/>
</g>
<g id="Layer_3">
	<path fill="#FF8C0D" d="M253.551,232.333c-0.157-0.981-0.264-1.978-0.264-3c0-10.844,9.173-19.667,20.448-19.667
		s20.448,8.822,20.448,19.667c0,1.022-0.106,2.019-0.264,3h25.15c0.067-0.993,0.113-1.991,0.113-3
		c0-24.668-20.348-44.667-45.448-44.667s-45.448,19.998-45.448,44.667c0,1.009,0.046,2.007,0.113,3H253.551z"/>
	<path fill="#FF8C0D" d="M302.831,48c-0.136-0.669-0.21-1.337-0.21-2c0-9.913,15.539-21,36.333-21s36.333,11.087,36.333,21
		c0,0.663-0.074,1.331-0.21,2h25.143c0.038-0.664,0.067-1.329,0.067-2c0-25.405-27.46-46-61.333-46
		c-33.874,0-61.333,20.595-61.333,46c0,0.671,0.03,1.336,0.067,2H302.831z"/>
	<ellipse fill="#FF8C0D" cx="338.954" cy="68.499" rx="36.333" ry="6.75"/>
	<path fill="#FF8C0D" d="M375.287,46c0,2.208-16.267,3.999-36.333,3.999S302.621,48.208,302.621,46h-25v158.499h25v-136h72.667
		V473.51c-4.165,3.092-16.463,8.535-36.333,8.535c-7.763,0-14.353-0.836-19.771-2.033l-10.749,23.051
		c8.99,2.529,19.405,3.982,30.52,3.982c33.873,0,61.333-13.432,61.333-30V46H375.287z"/>
	<ellipse fill="#FF8C0D" cx="273.735" cy="253.132" rx="20.448" ry="3.916"/>
	<path fill="#FF8C0D" d="M294.184,229.333c0,1.151-9.155,2.084-20.448,2.084s-20.448-0.933-20.448-2.084h-25v257.666h0.128
		c1.667,14.529,21.313,26,45.32,26s43.653-11.471,45.32-26h0.128V229.333H294.184z M294.184,254.333v228.201
		c-2.473,2.008-9.464,5.465-20.448,5.465s-17.975-3.456-20.448-5.465V253.132h40.896V254.333z"/>
</g>
</svg>
