<?xml version="1.0" standalone="no"?>
<!DOCTYPE svg PUBLIC "-//W3C//DTD SVG 1.1//EN" "http://www.w3.org/Graphics/SVG/1.1/DTD/svg11.dtd" >
<svg xmlns="http://www.w3.org/2000/svg" xmlns:xlink="http://www.w3.org/1999/xlink" version="1.1">
<metadata></metadata>
<defs>
<font id="euro_capsregular" horiz-adv-x="1024" >
<font-face units-per-em="2048" ascent="1536" descent="-512" />
<missing-glyph horiz-adv-x="616" />
<glyph horiz-adv-x="0" />
<glyph unicode="&#xd;" horiz-adv-x="616" />
<glyph unicode=" "  horiz-adv-x="616" />
<glyph unicode="&#x09;" horiz-adv-x="616" />
<glyph unicode="&#xa0;" horiz-adv-x="616" />
<glyph unicode="!" horiz-adv-x="533" d="M171 1365h192l-23 -969h-149zM175 0v212h185v-212h-185z" />
<glyph unicode="&#x22;" horiz-adv-x="662" d="M104 1365h138l-20 -546h-99zM419 1365h138l-19 -546h-99z" />
<glyph unicode="#" horiz-adv-x="1049" d="M68 355l17 110h187l37 235h-186l17 110h187l55 351h119l-55 -351h230l56 351h119l-55 -351h185l-18 -110h-185l-37 -235h187l-18 -110h-186l-57 -355h-119l56 355h-230l-57 -355h-118l56 355h-187zM391 465h231l37 235h-231z" />
<glyph unicode="$" horiz-adv-x="1186" d="M93 374v14h156v-20q1 -77 5 -114q6 -57 38.5 -85t97.5 -32q111 -3 143 -4v401q-188 1 -263 26q-97 32 -133 113q-31 68 -31 190q0 166 68 236q72 76 257 86q39 2 102 3v108h125v-108q26 -1 35 -1q160 -1 217 -21q94 -33 132 -118q26 -58 26 -161q0 -20 -1 -51h-153l-1 22 q-2 89 -6 107q-10 39 -30 53q-39 27 -144 30q-27 1 -75 1v-376q191 -2 278 -34q103 -37 137 -143q21 -64 21 -162q0 -126 -40 -199q-51 -94 -182 -121q-42 -8 -214 -14v-131h-125v131h-47q-109 -1 -159 6t-95 29q-63 31 -94 83t-40 140q-4 44 -5 116zM258 873 q0 -140 59 -172q45 -24 160 -27q19 -1 56 -1v377q-79 -1 -123 -3q-95 -4 -124 -46q-28 -38 -28 -128zM658 132h27q147 0 204 42q54 41 54 171q0 81 -24 124q-24 45 -107 56q-42 6 -154 7v-400z" />
<glyph unicode="%" horiz-adv-x="1813" d="M68 832q0 175 12 224q18 74 87 106q61 28 134 31q54 3 132 3q142 0 199 -15q106 -29 135 -111q16 -46 16 -237q0 -176 -12 -224q-18 -74 -87 -106q-60 -28 -134 -31q-52 -3 -124 -3q-150 0 -207 15q-106 29 -135 111q-16 46 -16 237zM201 833q2 -129 4 -147q7 -77 66 -89 q42 -9 155 -9q112 0 154 9q59 12 66 89q2 18 4 146q-2 129 -4 147q-8 77 -66 89q-42 9 -157 9q-110 0 -152 -9q-59 -12 -66 -89q-2 -18 -4 -146zM514 0l649 1188h136l-654 -1188h-131zM1030 354q0 175 12 224q18 75 87 106q61 28 134 31q54 3 132 3q141 0 199 -15 q106 -29 135 -111q16 -46 16 -237q0 -175 -12 -223q-18 -74 -87 -106q-60 -28 -134 -31q-52 -3 -124 -3q-150 0 -207 15q-106 29 -135 111q-16 46 -16 236zM1163 355q2 -129 4 -146q7 -77 66 -89q42 -9 155 -9q112 0 154 9q59 12 66 89q2 18 4 146q-2 128 -4 146 q-8 77 -66 89q-42 9 -157 9q-110 0 -152 -9q-59 -12 -66 -89q-2 -18 -4 -146z" />
<glyph unicode="&#x26;" horiz-adv-x="1308" d="M102 371q0 196 85 257q50 36 160 51q-37 33 -56 63q-28 47 -28 128q0 172 78 232q79 60 286 60q104 0 165 -15t101 -51q71 -64 71 -218q0 -31 -2 -88h-156q-1 45 -1 58q-1 115 -25 141q-29 31 -155 31q-141 0 -176 -31q-26 -24 -26 -93q0 -66 23 -99q16 -22 66 -63 l405 -338q1 31 1 46q0 26 -4 92h158q3 -78 3 -103q0 -87 -12 -156l204 -168l-90 -114l-165 137q-32 -63 -91 -97q-68 -37 -143 -43q-69 -6 -180 -6q-211 0 -285 18q-148 35 -190 174q-21 69 -21 195zM262 365q0 -169 52 -209q34 -26 118 -28q82 -1 168 -1q142 0 192 14 q76 21 97 87l-431 355q-107 -15 -142 -33q-29 -15 -41.5 -58t-12.5 -127z" />
<glyph unicode="'" horiz-adv-x="347" d="M104 1365h138l-20 -546h-99z" />
<glyph unicode="(" horiz-adv-x="673" d="M151 573q0 516 8 594q12 119 46.5 189.5t99.5 110.5q76 47 205 47q19 0 54 -1v-148q-112 -1 -160 -31q-50 -35 -63 -152q-10 -87 -9 -411v-395q2 -420 20 -476q21 -80 86 -103q44 -15 126 -15v-148q-41 -2 -61 -2q-235 0 -310 185q-34 84 -40 250q-2 51 -2 506z" />
<glyph unicode=")" horiz-adv-x="673" d="M109 -218q113 0 160 31q50 35 63 152q10 83 9 411v395q-2 419 -20 476q-21 80 -86 103q-44 15 -126 15v148q35 1 54 1q125 0 201.5 -44.5t115.5 -140.5q34 -84 40 -250q2 -51 2 -506q0 -516 -8 -594q-12 -119 -46.5 -189.5t-99.5 -110.5q-77 -47 -198 -47q-20 0 -61 2 v148z" />
<glyph unicode="*" horiz-adv-x="998" d="M82 1032l40 115l320 -115v333h115v-333l318 115l41 -115l-321 -119l191 -273l-92 -68l-193 282l-209 -282l-91 68l200 273z" />
<glyph unicode="+" horiz-adv-x="1079" d="M66 509v129h403v408h140v-408h403v-129h-403v-409h-140v409h-403z" />
<glyph unicode="," horiz-adv-x="454" d="M123 -140q53 3 75 19q28 21 28 76q0 15 -2 45h-78v212h185v-228q0 -111 -26 -152q-38 -62 -133 -62q-18 0 -49 2v88z" />
<glyph unicode="-" horiz-adv-x="513" d="M20 493v152h473v-152h-473z" />
<glyph unicode="." horiz-adv-x="431" d="M123 0v212h185v-212h-185z" />
<glyph unicode="/" horiz-adv-x="1212" d="M14 -195l1054 1560h131l-1054 -1560h-131z" />
<glyph unicode="0" horiz-adv-x="1152" d="M107 590q0 253 6 317q16 158 104 225q74 56 192 63q69 4 178 4q189 0 264 -25q135 -46 172 -181q19 -66 20 -185q1 -92 1 -215q0 -249 -6 -313q-16 -158 -104 -224q-73 -56 -192 -64q-67 -4 -166 -4q-201 0 -276 25q-135 46 -172 181q-18 66 -20 184q-1 91 -1 212z M259 594q0 -195 6 -272q6 -82 27.5 -122t68.5 -54q60 -18 215 -18t215 18q67 20 87 106q15 64 15 346q0 187 -6 267q-7 98 -37 136q-34 46 -130 53q-67 5 -150 5q-148 0 -209 -18q-67 -20 -87 -106q-15 -63 -15 -341z" />
<glyph unicode="1" horiz-adv-x="1150" d="M296 837l351 351h207v-1188h-157v1010l-287 -287z" />
<glyph unicode="2" horiz-adv-x="1074" d="M101 0v231q0 95 17 150.5t57 93.5q57 51 164 73q58 12 188 26q154 16 192 29q66 22 82 77q15 50 15 158q0 136 -39 176q-44 46 -216 46q-150 0 -217 -18q-33 -9 -50 -25.5t-27 -50.5q-9 -30 -9 -133v-68h-155v68q0 226 95 298q89 68 361 68q243 0 330 -85q56 -54 69 -152 q9 -63 9 -143q0 -137 -27 -205q-41 -101 -153 -140q-71 -25 -234 -42q-129 -13 -165 -21q-52 -11 -77 -28t-36 -51q-16 -47 -17 -142v-53h706v-137h-863z" />
<glyph unicode="3" horiz-adv-x="1112" d="M97 337v68h154v-68q0 -135 38 -175q24 -24 100 -30q52 -4 199 -4q175 0 215 46q31 36 31 182q0 102 -37 141q-29 31 -79 37q-34 4 -80 4h-205v140h205q115 0 149 47q25 34 25 125q0 98 -19 148q-10 27 -32.5 39t-71.5 18q-43 4 -154 4t-159.5 -7t-71.5 -27 q-36 -30 -36 -153v-68h-151v68q0 196 89 265q64 49 173 57q70 5 163 5q173 0 243 -19q128 -34 164 -137q20 -57 20 -151q0 -163 -49 -222q-32 -39 -96 -59q65 -16 99 -46q68 -59 68 -227q0 -197 -77 -270q-55 -52 -143 -66q-94 -14 -218 -14q-204 0 -288 28 q-110 37 -148 140q-20 54 -20 181z" />
<glyph unicode="4" horiz-adv-x="1114" d="M62 268v173l586 747h221v-782h174v-138h-174v-268h-157v268h-650zM212 406h500v647z" />
<glyph unicode="5" horiz-adv-x="1116" d="M122 291v68h151v-41q0 -112 33 -144q42 -40 149 -44q40 -2 85 -2q203 0 261 43q32 24 39 116q3 39 3 164q0 139 -47 185q-48 46 -226 46q-149 0 -201 -16q-61 -18 -76 -67q-2 -7 -6 -27h-143v616h808v-138h-656v-302q39 38 85 51q78 22 212 22q231 0 322 -88 q69 -68 81 -189q4 -48 4 -114q0 -144 -16.5 -221t-58.5 -127q-42 -49 -128.5 -71.5t-236.5 -22.5q-180 0 -261 26q-115 38 -154 133q-23 54 -23 144z" />
<glyph unicode="6" horiz-adv-x="1122" d="M117 621q5 256 5 270q3 98 30 155.5t87 95.5q89 57 303 57q197 0 279 -26q159 -50 159 -251v-55h-155v55q0 78 -28 102q-40 35 -185 35q-176 0 -235 -15q-59 -16 -77 -59q-18 -44 -18 -124v-200q39 41 81 55q74 25 240 25q182 0 258 -33q92 -39 125 -135q25 -74 25 -191 q0 -220 -75 -306q-59 -67 -165 -79q-79 -9 -190 -9q-137 0 -206.5 11.5t-119.5 43.5q-94 58 -119 154q-15 54 -17 212zM274 407q0 -191 45 -233q48 -46 255 -46q203 0 244 37q42 38 42 192q0 167 -37 203q-41 41 -262 41q-189 0 -246 -44q-41 -31 -41 -150z" />
<glyph unicode="7" horiz-adv-x="1069" d="M90 1050v138h873v-184l-567 -1004h-188l609 1050h-727z" />
<glyph unicode="8" horiz-adv-x="1112" d="M109 342q0 147 39 200q36 49 120 75q-61 20 -84 42q-60 60 -60 228q0 180 73 242q63 54 177 63q84 7 185 7q191 0 262 -20q116 -32 150 -141q18 -59 18 -155q0 -141 -42 -203q-24 -35 -103 -64q60 -17 88 -41q48 -41 60 -103q10 -55 10 -123q0 -119 -17 -183t-60 -102 q-44 -40 -128 -58t-226 -18q-205 0 -297 27q-103 31 -141 127q-24 60 -24 200zM260 351q0 -122 15 -155q22 -46 87 -58q53 -10 206 -10q198 0 244 43q39 35 39 182q0 108 -37 146q-26 28 -93 37q-49 7 -181 7q-137 0 -190 -15q-63 -19 -80 -70q-10 -28 -10 -107zM276 885 q0 -105 14 -136q21 -44 78 -56q55 -12 231 -12q163 0 204 40q35 34 35 156q0 123 -38 152q-38 30 -243 30q-121 0 -174 -7t-75 -26q-32 -27 -32 -141z" />
<glyph unicode="9" horiz-adv-x="1118" d="M106 282v41h150v-41q0 -99 39 -126q36 -24 112 -26q75 -2 142 -2q152 0 214 22q54 19 67 97q8 43 8 146v135q-27 -32 -53 -43q-80 -35 -286 -35q-201 0 -287 61q-71 50 -88 143q-12 65 -12 148q0 164 30 238q50 120 208 147q70 12 204 12q192 0 275 -34q132 -53 156 -204 q15 -95 15 -433q0 -185 -9 -266q-12 -101 -48 -157.5t-107 -85.5q-78 -31 -283 -31q-192 0 -263 18q-140 36 -172 145q-12 41 -12 131zM263 830q0 -159 40 -200q40 -40 213 -40q164 0 226 15q54 13 74 42q23 33 23 137q0 130 -12 168q-21 70 -84 90q-55 17 -217 17 q-182 0 -222 -38q-41 -39 -41 -191z" />
<glyph unicode=":" horiz-adv-x="431" d="M123 0v212h185v-212h-185zM123 880v212h185v-212h-185z" />
<glyph unicode=";" horiz-adv-x="454" d="M123 -140q53 3 75 19q28 21 28 76q0 15 -2 45h-78v212h185v-228q0 -111 -26 -152q-38 -62 -133 -62q-18 0 -49 2v88zM135 880v212h185v-212h-185z" />
<glyph unicode="&#x3c;" d="M68 504v140l887 420v-163l-713 -328l713 -328v-162z" />
<glyph unicode="=" horiz-adv-x="1079" d="M66 338v129h946v-129h-946zM66 680v129h946v-129h-946z" />
<glyph unicode="&#x3e;" d="M69 83v162l713 328l-713 328v163l887 -420v-140z" />
<glyph unicode="?" horiz-adv-x="976" d="M123 1022v37q0 103 12 152q25 102 118 141q72 31 226 31q156 0 228 -26q110 -39 135 -141q11 -46 11 -184q0 -151 -17 -195q-20 -52 -55 -78q-36 -26 -200 -87q-43 -17 -53 -35q-10 -15 -10 -65v-176h-157v192q0 128 65 172q36 23 173 70q71 25 90 65q13 25 13 102 q0 135 -9 165q-19 61 -86 72q-34 6 -127 6q-95 0 -129 -11q-60 -18 -72 -92q-3 -21 -3 -86v-29h-153zM348 0v212h185v-212h-185z" />
<glyph unicode="@" horiz-adv-x="1499" d="M102 674q0 306 45 450q41 129 136 176q133 66 505 66q270 0 385 -36q117 -37 161 -121q63 -120 63 -377q0 -279 -39 -414q-26 -90 -92 -115q-32 -13 -78 -13q-167 0 -193 128h-3q-25 -61 -77 -92q-69 -42 -206 -42q-184 0 -249 107q-51 85 -51 289q0 153 21 237 q29 109 122 148q63 26 164 26q113 0 182 -32q44 -20 70 -77h4v109h115v-544q4 -91 7 -108q12 -59 90 -59q54 0 74 35q18 33 29 138.5t11 240.5q0 221 -30 320q-36 115 -181 136q-106 15 -309 15q-263 0 -370 -22q-113 -23 -148 -96q-58 -119 -58 -438q0 -259 30 -391 q32 -134 135 -175q76 -31 172 -37q132 -9 285 -9q208 0 285 25q33 11 61 53l79 -56q-42 -73 -119 -95q-88 -26 -322 -26q-196 0 -310 16q-158 22 -241 81q-95 68 -128 231q-27 137 -27 348zM531 693q0 -206 51 -267q37 -45 157 -45q113 0 159 29q61 38 67 150q6 94 6 196 q0 144 -55 195q-48 44 -172 44q-74 0 -122 -16q-66 -23 -82 -129q-9 -60 -9 -157z" />
<glyph unicode="A" horiz-adv-x="1138" d="M20 0l444 1170h202l453 -1170h-168l-93 242h-577l-92 -242h-169zM332 376h474l-239 625z" />
<glyph unicode="B" horiz-adv-x="1170" d="M143 0v1170h550q102 0 142 -5q120 -15 173 -103q40 -68 40 -209q0 -143 -59 -201q-28 -28 -105 -38q79 -5 118 -34q81 -63 81 -242q0 -224 -117 -293q-75 -45 -219 -45h-604zM302 142h288q147 1 175 3q122 6 145 68q14 40 14 110q0 84 -15 128q-19 60 -105 72 q-25 4 -156 4h-346v-385zM302 669h354q128 0 174 24q39 22 52 71q7 30 7 90q0 81 -15 113q-22 49 -89 58q-24 3 -95 3h-388v-359z" />
<glyph unicode="C" horiz-adv-x="1151" d="M94 569q0 273 13 358q21 136 143 204q76 43 203 51q62 4 225 4q154 0 215 -20q138 -45 166 -200q10 -57 10 -144q0 -10 -1 -32h-157q-1 39 -1 51q-2 142 -48 175q-40 29 -185 29q-192 0 -276 -11q-52 -7 -80.5 -29.5t-43.5 -68.5q-16 -50 -16 -166q0 -412 22 -514 q13 -66 48 -93q40 -31 130 -35q55 -2 118 -2q145 0 212.5 9.5t92.5 33.5q35 34 35 153q0 39 -2 90h159v-58v-12q0 -136 -22 -195q-46 -127 -205 -153q-60 -10 -301 -10q-108 0 -154 4.5t-91 20.5q-176 59 -199 311q-10 116 -10 249z" />
<glyph unicode="D" horiz-adv-x="1243" d="M143 0v1170h573q111 0 190 -20q121 -29 185 -149q59 -111 59 -363q0 -207 -9 -288q-25 -227 -171 -303q-55 -28 -169 -43q-30 -4 -52 -4h-606zM302 142h387q185 0 240 66q46 55 57 185q5 59 5 169q0 198 -10 278q-18 134 -117 169q-54 19 -149 19h-413v-886z" />
<glyph unicode="E" horiz-adv-x="1036" d="M143 0v1170h794v-142h-635v-354h610v-139h-610v-393h635v-142h-794z" />
<glyph unicode="F" horiz-adv-x="960" d="M143 0v1170h761v-142h-602v-365h587v-139h-587v-524h-159z" />
<glyph unicode="G" horiz-adv-x="1192" d="M94 600v48q0 157 12.5 239.5t45.5 146.5q59 115 208 142q59 10 219 10q180 0 242 -4.5t108 -19.5q152 -53 165 -229q3 -31 3 -124h-158q-1 131 -21 174q-21 45 -112 55q-65 7 -241 7q-144 0 -207 -18q-71 -20 -91 -118q-11 -51 -14 -321q1 -212 3 -249q4 -90 28.5 -135.5 t77.5 -59.5q67 -19 292 -19q117 0 174.5 11.5t79.5 39.5q33 42 33 220q0 20 -1 59h-363v142h518q5 -58 5 -128q0 -128 -3 -185q-12 -208 -159 -269q-76 -31 -343 -31q-178 0 -260 18.5t-139 70.5q-88 81 -98 241q-3 51 -3 124v38t-1 124z" />
<glyph unicode="H" horiz-adv-x="1271" d="M143 0v1170h159v-502h668v502h159v-1170h-159v529h-668v-529h-159z" />
<glyph unicode="I" horiz-adv-x="445" d="M143 0v1170h159v-1170h-159z" />
<glyph unicode="J" horiz-adv-x="967" d="M57 296q0 79 4 150h156q-1 -52 -1 -69q0 -144 11 -181q15 -48 71 -61q36 -9 151 -9q121 0 158 23q48 31 55 124q4 46 4 99v798h159v-819q0 -102 -11 -157t-39 -96q-48 -68 -130 -93q-68 -21 -190 -21q-176 0 -259 34q-98 40 -125 135q-14 48 -14 143z" />
<glyph unicode="K" horiz-adv-x="1159" d="M143 0v1170h159v-498h106l482 498h210l-551 -567l615 -603h-220l-536 527h-106v-527h-159z" />
<glyph unicode="L" horiz-adv-x="958" d="M143 0v1170h159v-1019h618v-151h-777z" />
<glyph unicode="M" horiz-adv-x="1598" d="M143 0v1170h248l407 -999l406 999h251v-1170h-159v1023l-421 -1023h-150l-423 1023v-1023h-159z" />
<glyph unicode="N" horiz-adv-x="1321" d="M143 0v1170h234l643 -1023v1023h159v-1170h-235l-642 1023v-1023h-159z" />
<glyph unicode="O" horiz-adv-x="1220" d="M94 637q0 162 8 225q28 220 176 285q66 29 173 35q69 4 174 4q131 0 199 -8.5t119 -30.5q148 -64 176 -286q8 -60 8 -218q0 -270 -9 -340q-15 -114 -52 -177t-110 -98q-74 -36 -192 -41q-61 -3 -154 -3q-157 0 -223.5 8.5t-122.5 35.5q-105 52 -141 176q-25 86 -27 203 q-2 76 -2 230zM253 585q0 -212 4 -252q8 -81 28.5 -122t63.5 -59q38 -16 111 -19q58 -3 151 -3q124 0 177 4.5t85 17.5q60 25 81 112q14 61 14 140v181q0 212 -4 252q-8 82 -28.5 122.5t-63.5 58.5q-39 16 -114 19q-61 3 -164 3q-115 0 -164 -4.5t-82 -18.5 q-60 -25 -81 -111q-14 -60 -14 -140v-181z" />
<glyph unicode="P" horiz-adv-x="1121" d="M143 0v1170h524q112 0 159 -5.5t87 -23.5q146 -66 146 -336q0 -148 -40 -224q-52 -97 -160 -123q-38 -9 -212 -11h-345v-447h-159zM302 589h320q147 0 198 18q54 20 71 84q9 32 9 96q0 121 -15 169q-17 52 -78 65q-26 6 -144 7h-361v-439z" />
<glyph unicode="Q" horiz-adv-x="1220" d="M94 642q0 159 8 220q28 220 176 285q65 29 170 35q69 4 162 4q143 0 212.5 -8t120.5 -31q148 -65 176 -285q8 -61 8 -229q0 -278 -10 -346q-3 -24 -9 -50l117 -78l-70 -114l-102 67q-51 -70 -146 -102q-63 -22 -183 -25q-60 -1 -119 -1q-153 0 -219 8.5t-122 35.5 q-114 56 -149 204q-17 70 -19 173q-2 57 -2 237zM253 585q0 -213 4 -253q8 -82 28.5 -123.5t63.5 -59.5q38 -17 107 -20q55 -3 138 -3q130 0 205 5q88 7 127 65l-342 223l77 114l303 -201q4 64 4 253q0 217 -4 253q-8 82 -29 124t-62 60q-39 16 -112 19q-58 3 -151 3 q-125 0 -177.5 -4.5t-84.5 -18.5q-60 -26 -81 -113q-14 -61 -14 -142v-181z" />
<glyph unicode="R" horiz-adv-x="1193" d="M143 0v1170h590q156 0 237 -53q71 -46 97 -140q15 -56 15 -147q0 -150 -39 -218q-41 -74 -150 -84q172 -11 173 -222v-306h-159v276q0 108 -49 148q-48 35 -142 35h-10h-404v-459h-159zM302 601h388q119 0 172 32q61 37 61 151q0 155 -28 195q-35 49 -161 49h-432v-427z " />
<glyph unicode="S" horiz-adv-x="1097" d="M87 383h159v-44q1 -86 13 -126.5t43 -61.5q29 -20 92 -22q69 -3 164 -3q130 0 184 10t78 39q30 35 30 176q0 68 -15 101q-20 47 -99 57q-39 5 -197 11q-157 7 -198 12q-131 19 -193 100q-53 68 -53 210q0 204 91 274q70 54 181 64q79 6 183 6q199 0 273 -25 q151 -50 164 -240q1 -21 1 -91h-159q0 83 -7 117q-13 66 -82 85q-44 12 -157 12q-159 0 -205 -8q-86 -14 -110 -77q-14 -38 -14 -100q0 -79 19 -121q22 -47 109 -58q32 -4 189 -10q174 -7 237 -19q126 -26 172 -123q29 -62 29 -192q0 -189 -62 -259q-64 -72 -183 -84 q-91 -9 -246 -9q-188 0 -252 20q-150 48 -172 231q-5 39 -7 148z" />
<glyph unicode="T" horiz-adv-x="1007" d="M38 1019v151h930v-151h-384v-1019h-159v1019h-387z" />
<glyph unicode="U" horiz-adv-x="1251" d="M143 357v813h159v-813q0 -124 21 -161q27 -46 105 -61q47 -9 181 -9q197 0 258 20q56 18 72 90q10 40 10 121v813h159v-813q0 -150 -33 -218q-49 -103 -176 -137q-69 -18 -267 -18q-141 0 -202.5 6t-108.5 24q-105 40 -145 125q-33 71 -33 218z" />
<glyph unicode="V" horiz-adv-x="1096" d="M14 1170h170l367 -1000l361 1000h171l-429 -1170h-207z" />
<glyph unicode="W" horiz-adv-x="1801" d="M14 1170h165l308 -1014l304 1014h213l302 -1014l315 1014h167l-377 -1170h-218l-296 1014l-301 -1014h-215z" />
<glyph unicode="X" horiz-adv-x="1101" d="M1 0l433 605l-401 565h194l331 -469l326 469h189l-390 -565l418 -605h-190l-353 506l-361 -506h-196z" />
<glyph unicode="Y" horiz-adv-x="1068" d="M1 1170h187l345 -516l344 516h190l-459 -683v-487h-159v487z" />
<glyph unicode="Z" horiz-adv-x="1076" d="M63 0v135l733 893h-713v142h916v-132l-736 -896h751v-142h-951z" />
<glyph unicode="[" horiz-adv-x="673" d="M165 -352v1850h399v-133h-225v-1583h225v-134h-399z" />
<glyph unicode="\" horiz-adv-x="1212" d="M14 1365h131l1054 -1560h-132z" />
<glyph unicode="]" horiz-adv-x="673" d="M109 -219h225v1584h-225v134h399v-1851h-399v133z" />
<glyph unicode="^" d="M64 765l356 604h185l356 -604h-154l-296 492l-294 -492h-153z" />
<glyph unicode="_" d="M0 -145h1024v-107h-1024v107z" />
<glyph unicode="`" d="M254 1518l82 112l310 -234l-56 -85z" />
<glyph unicode="a" horiz-adv-x="1138" d="M20 0l444 1170h202l453 -1170h-168l-93 242h-577l-92 -242h-169zM332 376h474l-239 625z" />
<glyph unicode="b" horiz-adv-x="1170" d="M143 0v1170h550q102 0 142 -5q120 -15 173 -103q40 -68 40 -209q0 -143 -59 -201q-28 -28 -105 -38q79 -5 118 -34q81 -63 81 -242q0 -224 -117 -293q-75 -45 -219 -45h-604zM302 142h288q147 1 175 3q122 6 145 68q14 40 14 110q0 84 -15 128q-19 60 -105 72 q-25 4 -156 4h-346v-385zM302 669h354q128 0 174 24q39 22 52 71q7 30 7 90q0 81 -15 113q-22 49 -89 58q-24 3 -95 3h-388v-359z" />
<glyph unicode="c" horiz-adv-x="1151" d="M94 569q0 273 13 358q21 136 143 204q76 43 203 51q62 4 225 4q154 0 215 -20q138 -45 166 -200q10 -57 10 -144q0 -10 -1 -32h-157q-1 39 -1 51q-2 142 -48 175q-40 29 -185 29q-192 0 -276 -11q-52 -7 -80.5 -29.5t-43.5 -68.5q-16 -50 -16 -166q0 -412 22 -514 q13 -66 48 -93q40 -31 130 -35q55 -2 118 -2q145 0 212.5 9.5t92.5 33.5q35 34 35 153q0 39 -2 90h159v-58v-12q0 -136 -22 -195q-46 -127 -205 -153q-60 -10 -301 -10q-108 0 -154 4.5t-91 20.5q-176 59 -199 311q-10 116 -10 249z" />
<glyph unicode="d" horiz-adv-x="1243" d="M143 0v1170h573q111 0 190 -20q121 -29 185 -149q59 -111 59 -363q0 -207 -9 -288q-25 -227 -171 -303q-55 -28 -169 -43q-30 -4 -52 -4h-606zM302 142h387q185 0 240 66q46 55 57 185q5 59 5 169q0 198 -10 278q-18 134 -117 169q-54 19 -149 19h-413v-886z" />
<glyph unicode="e" horiz-adv-x="1036" d="M143 0v1170h794v-142h-635v-354h610v-139h-610v-393h635v-142h-794z" />
<glyph unicode="f" horiz-adv-x="960" d="M143 0v1170h761v-142h-602v-365h587v-139h-587v-524h-159z" />
<glyph unicode="g" horiz-adv-x="1192" d="M94 600v48q0 157 12.5 239.5t45.5 146.5q59 115 208 142q59 10 219 10q180 0 242 -4.5t108 -19.5q152 -53 165 -229q3 -31 3 -124h-158q-1 131 -21 174q-21 45 -112 55q-65 7 -241 7q-144 0 -207 -18q-71 -20 -91 -118q-11 -51 -14 -321q1 -212 3 -249q4 -90 28.5 -135.5 t77.5 -59.5q67 -19 292 -19q117 0 174.5 11.5t79.5 39.5q33 42 33 220q0 20 -1 59h-363v142h518q5 -58 5 -128q0 -128 -3 -185q-12 -208 -159 -269q-76 -31 -343 -31q-178 0 -260 18.5t-139 70.5q-88 81 -98 241q-3 51 -3 124v38t-1 124z" />
<glyph unicode="h" horiz-adv-x="1271" d="M143 0v1170h159v-502h668v502h159v-1170h-159v529h-668v-529h-159z" />
<glyph unicode="i" horiz-adv-x="445" d="M143 0v1170h159v-1170h-159z" />
<glyph unicode="j" horiz-adv-x="967" d="M57 296q0 79 4 150h156q-1 -52 -1 -69q0 -144 11 -181q15 -48 71 -61q36 -9 151 -9q121 0 158 23q48 31 55 124q4 46 4 99v798h159v-819q0 -102 -11 -157t-39 -96q-48 -68 -130 -93q-68 -21 -190 -21q-176 0 -259 34q-98 40 -125 135q-14 48 -14 143z" />
<glyph unicode="k" horiz-adv-x="1159" d="M143 0v1170h159v-498h106l482 498h210l-551 -567l615 -603h-220l-536 527h-106v-527h-159z" />
<glyph unicode="l" horiz-adv-x="958" d="M143 0v1170h159v-1019h618v-151h-777z" />
<glyph unicode="m" horiz-adv-x="1598" d="M143 0v1170h248l407 -999l406 999h251v-1170h-159v1023l-421 -1023h-150l-423 1023v-1023h-159z" />
<glyph unicode="n" horiz-adv-x="1321" d="M143 0v1170h234l643 -1023v1023h159v-1170h-235l-642 1023v-1023h-159z" />
<glyph unicode="o" horiz-adv-x="1220" d="M94 637q0 162 8 225q28 220 176 285q66 29 173 35q69 4 174 4q131 0 199 -8.5t119 -30.5q148 -64 176 -286q8 -60 8 -218q0 -270 -9 -340q-15 -114 -52 -177t-110 -98q-74 -36 -192 -41q-61 -3 -154 -3q-157 0 -223.5 8.5t-122.5 35.5q-105 52 -141 176q-25 86 -27 203 q-2 76 -2 230zM253 585q0 -212 4 -252q8 -81 28.5 -122t63.5 -59q38 -16 111 -19q58 -3 151 -3q124 0 177 4.5t85 17.5q60 25 81 112q14 61 14 140v181q0 212 -4 252q-8 82 -28.5 122.5t-63.5 58.5q-39 16 -114 19q-61 3 -164 3q-115 0 -164 -4.5t-82 -18.5 q-60 -25 -81 -111q-14 -60 -14 -140v-181z" />
<glyph unicode="p" horiz-adv-x="1121" d="M143 0v1170h524q112 0 159 -5.5t87 -23.5q146 -66 146 -336q0 -148 -40 -224q-52 -97 -160 -123q-38 -9 -212 -11h-345v-447h-159zM302 589h320q147 0 198 18q54 20 71 84q9 32 9 96q0 121 -15 169q-17 52 -78 65q-26 6 -144 7h-361v-439z" />
<glyph unicode="q" horiz-adv-x="1220" d="M94 642q0 159 8 220q28 220 176 285q65 29 170 35q69 4 162 4q143 0 212.5 -8t120.5 -31q148 -65 176 -285q8 -61 8 -229q0 -278 -10 -346q-3 -24 -9 -50l117 -78l-70 -114l-102 67q-51 -70 -146 -102q-63 -22 -183 -25q-60 -1 -119 -1q-153 0 -219 8.5t-122 35.5 q-114 56 -149 204q-17 70 -19 173q-2 57 -2 237zM253 585q0 -213 4 -253q8 -82 28.5 -123.5t63.5 -59.5q38 -17 107 -20q55 -3 138 -3q130 0 205 5q88 7 127 65l-342 223l77 114l303 -201q4 64 4 253q0 217 -4 253q-8 82 -29 124t-62 60q-39 16 -112 19q-58 3 -151 3 q-125 0 -177.5 -4.5t-84.5 -18.5q-60 -26 -81 -113q-14 -61 -14 -142v-181z" />
<glyph unicode="r" horiz-adv-x="1193" d="M143 0v1170h590q156 0 237 -53q71 -46 97 -140q15 -56 15 -147q0 -150 -39 -218q-41 -74 -150 -84q172 -11 173 -222v-306h-159v276q0 108 -49 148q-48 35 -142 35h-10h-404v-459h-159zM302 601h388q119 0 172 32q61 37 61 151q0 155 -28 195q-35 49 -161 49h-432v-427z " />
<glyph unicode="s" horiz-adv-x="1097" d="M87 383h159v-44q1 -86 13 -126.5t43 -61.5q29 -20 92 -22q69 -3 164 -3q130 0 184 10t78 39q30 35 30 176q0 68 -15 101q-20 47 -99 57q-39 5 -197 11q-157 7 -198 12q-131 19 -193 100q-53 68 -53 210q0 204 91 274q70 54 181 64q79 6 183 6q199 0 273 -25 q151 -50 164 -240q1 -21 1 -91h-159q0 83 -7 117q-13 66 -82 85q-44 12 -157 12q-159 0 -205 -8q-86 -14 -110 -77q-14 -38 -14 -100q0 -79 19 -121q22 -47 109 -58q32 -4 189 -10q174 -7 237 -19q126 -26 172 -123q29 -62 29 -192q0 -189 -62 -259q-64 -72 -183 -84 q-91 -9 -246 -9q-188 0 -252 20q-150 48 -172 231q-5 39 -7 148z" />
<glyph unicode="t" horiz-adv-x="1007" d="M38 1019v151h930v-151h-384v-1019h-159v1019h-387z" />
<glyph unicode="u" horiz-adv-x="1251" d="M143 357v813h159v-813q0 -124 21 -161q27 -46 105 -61q47 -9 181 -9q197 0 258 20q56 18 72 90q10 40 10 121v813h159v-813q0 -150 -33 -218q-49 -103 -176 -137q-69 -18 -267 -18q-141 0 -202.5 6t-108.5 24q-105 40 -145 125q-33 71 -33 218z" />
<glyph unicode="v" horiz-adv-x="1096" d="M14 1170h170l367 -1000l361 1000h171l-429 -1170h-207z" />
<glyph unicode="w" horiz-adv-x="1801" d="M14 1170h165l308 -1014l304 1014h213l302 -1014l315 1014h167l-377 -1170h-218l-296 1014l-301 -1014h-215z" />
<glyph unicode="x" horiz-adv-x="1101" d="M1 0l433 605l-401 565h194l331 -469l326 469h189l-390 -565l418 -605h-190l-353 506l-361 -506h-196z" />
<glyph unicode="y" horiz-adv-x="1068" d="M1 1170h187l345 -516l344 516h190l-459 -683v-487h-159v487z" />
<glyph unicode="z" horiz-adv-x="1076" d="M63 0v135l733 893h-713v142h916v-132l-736 -896h751v-142h-951z" />
<glyph unicode="{" horiz-adv-x="673" d="M46 508v130q61 16 94 56q41 53 40 158v297q0 173 47 250q34 58 119 84q50 15 103 15h102v-127q-45 0 -87 -9t-64 -24q-18 -12 -34 -36.5t-21 -46.5q-3 -14 -6.5 -52t-3.5 -57v-301q0 -124 -39 -187q-33 -51 -103 -85q76 -36 110 -98q32 -63 32 -174v-301q0 -102 24 -144 q46 -81 178 -81h14v-127h-102q-81 0 -143 31q-66 32 -92 93q-34 82 -34 225v297q1 106 -40 158q-32 39 -94 56z" />
<glyph unicode="|" horiz-adv-x="594" d="M216 -341v1706h163v-1706h-163z" />
<glyph unicode="}" horiz-adv-x="659" d="M109 -225q45 0 86.5 9t63.5 24q19 12 35 36.5t21 46.5q3 14 6.5 52t3.5 57v301q0 124 39 187q33 51 103 85q-76 36 -110 98q-32 63 -32 174v301q0 102 -24 144q-46 81 -178 81h-14v127h103q80 0 142 -31q66 -32 92 -93q34 -82 34 -225v-297q-1 -105 40 -158 q32 -39 94 -56v-130q-61 -16 -94 -56q-41 -54 -40 -158v-297q0 -173 -47 -250q-34 -58 -119 -84q-50 -15 -102 -15h-103v127z" />
<glyph unicode="~" horiz-adv-x="1365" d="M193 1256q37 77 81 131q81 99 195 99q79 0 235 -79q89 -44 119 -55q43 -14 77 -14q67 0 119 56q33 36 68 97l87 -69q-111 -232 -277 -232q-51 0 -123 30q-38 16 -111 52q-137 67 -200 67q-68 0 -119 -59q-30 -34 -64 -93z" />
<glyph unicode="&#xa1;" horiz-adv-x="533" d="M171 -195l23 969h149l20 -969h-192zM174 958v212h185v-212h-185z" />
<glyph unicode="&#xa2;" horiz-adv-x="990" d="M116 565q0 187 40 268q70 140 269 144v113h127v-113q101 -2 171 -38q114 -58 114 -219q0 -10 -1 -43h-145q-1 87 -8 111q-22 61 -131 65v-609q70 3 107 23q29 17 38 49q9 27 10 76q0 19 1 58h146q-1 -21 -1 -45q-2 -113 -31 -167q-69 -119 -270 -119v-125h-127v125 q-116 3 -185 45q-80 49 -107 174q-17 79 -17 227zM267 583q0 -266 61 -313q27 -20 97 -24v609q-71 -6 -103 -31q-55 -44 -55 -241z" />
<glyph unicode="&#xa3;" horiz-adv-x="1074" d="M49 453v138h144v163q0 9 -1 48q-1 27 -1 50q0 181 71 260q52 58 143 73q81 14 179 14q167 0 239 -27q118 -45 149 -160q11 -42 11 -131v-68h-152v68q0 101 -30 134q-39 44 -198 44q-136 0 -187 -20q-43 -16 -55 -63q-8 -30 -11 -165v-220h330v-138h-330v-40v-47 q1 -35 1 -46q0 -98 -30 -145q-11 -19 -36 -39h721v-136h-928v124q65 14 90 56q20 38 23 117q2 41 2 74v82h-144z" />
<glyph unicode="&#xa4;" horiz-adv-x="1338" d="M100 1057l80 80l193 -193q143 106 296 106q154 0 293 -105l194 191l79 -79l-192 -192q105 -141 105 -293q0 -149 -103 -289l193 -193l-79 -80l-193 193q-135 -105 -294 -105q-149 0 -296 105l-192 -193l-79 79l190 193q-104 137 -104 292q0 150 104 290zM321 574 q0 -145 102 -248q102 -102 246 -102t247 103q101 101 101 245q0 149 -101 249q-105 103 -251 103q-140 0 -243 -104q-101 -102 -101 -246z" />
<glyph unicode="&#xa5;" horiz-adv-x="1048" d="M25 1188h184l314 -531l312 531h188l-226 -367h147v-137h-231l-89 -143h320v-138h-347v-403h-157v403h-336v138h310l-87 143h-223v137h142z" />
<glyph unicode="&#xa6;" horiz-adv-x="594" d="M216 314h163v-655h-163v655zM216 680v685h163v-685h-163z" />
<glyph unicode="&#xa7;" horiz-adv-x="1164" d="M96 551q0 145 62 200q36 32 108 48q-64 40 -84 97q-20 55 -20 145q0 197 65 263q73 75 336 75q274 0 353 -44q87 -49 104 -172q6 -43 6 -146h-147q0 40 -1 54q0 88 -32 120q-37 37 -142 45q-59 4 -123 4q-152 0 -201 -19q-40 -15 -55 -57q-11 -33 -11 -100q0 -99 28 -128 q21 -22 62 -35q29 -10 80 -25l306 -90q116 -34 151 -50q89 -38 114 -120q14 -43 14 -109q0 -118 -35 -184q-22 -43 -59 -65q-17 -10 -52 -23q74 -35 98 -73q38 -63 38 -197q0 -246 -123 -312q-62 -33 -178 -41q-63 -5 -161 -5q-255 0 -336 38q-115 52 -138 195q-7 42 -6 146 h151q1 -90 6 -119q14 -82 118 -99q70 -12 169 -12q180 0 240 11q104 19 104 190q0 95 -35 127q-29 27 -136 55l-420 111q-87 24 -122 44q-96 59 -96 257zM244 552q0 -77 32 -112q22 -23 56 -35q22 -7 63 -19l308 -86q61 -17 99 -17q77 0 106 68q19 46 19 141q0 67 -49 100 q-32 23 -118 48l-295 87q-67 20 -98 20q-71 0 -100 -54q-23 -42 -23 -141z" />
<glyph unicode="&#xa8;" d="M213 1366v155h184v-155h-184zM628 1366v155h184v-155h-184z" />
<glyph unicode="&#xa9;" horiz-adv-x="1526" d="M68 681q0 197 102 366q101 165 279 256q148 76 324 76q186 0 353 -103q168 -103 256 -277q76 -150 76 -317q0 -138 -53 -266t-150 -226q-98 -98 -226 -151t-265 -53q-138 0 -266 53t-225 150q-98 98 -151.5 226.5t-53.5 265.5zM183 683q0 -245 171 -417 q170 -172 410 -172q239 0 409 172q170 173 170 415q0 119 -45 229t-125 190q-174 171 -416 171q-110 0 -216 -45t-187 -126q-82 -82 -126.5 -191t-44.5 -226zM437 685q0 184 8 231q15 90 97 134q50 27 140 33q44 3 138 3q123 0 175 -28q69 -36 79 -127q3 -29 6 -100h-116 q-1 21 -1 28q-1 87 -32 108q-27 18 -120 18q-103 0 -158 -6q-65 -8 -84 -63q-11 -31 -11 -99q0 -270 14 -337q10 -43 33 -61q32 -25 155 -25q161 0 190 27q24 22 24 97q0 7 -1 51h117q-1 -27 -1 -36q1 -86 -11 -127t-45 -67q-46 -38 -125 -43q-59 -4 -157 -4q-119 0 -171 16 q-121 38 -136 204q-7 79 -7 173z" />
<glyph unicode="&#xaa;" horiz-adv-x="764" d="M82 697q0 137 67 186q59 43 205 43q150 0 203 -43v42q0 84 -16 123q-20 46 -143 46q-110 0 -140 -23q-23 -17 -23 -64q0 -6 1 -34h-126q0 11 1 31q1 106 52 146q59 47 226 47q129 0 188 -27q88 -39 100 -149q5 -44 5 -75v-454h-125v45q-35 -30 -69 -41q-48 -14 -142 -14 q-149 0 -210 55q-54 48 -54 160zM212 709q0 -73 27 -94q32 -23 131 -23q127 0 169 35q23 20 23 74q0 66 -26 89q-36 30 -151 30q-122 0 -153 -27q-20 -17 -20 -84z" />
<glyph unicode="&#xab;" horiz-adv-x="981" d="M109 576l223 472l120 -73l-188 -399l209 -404l-113 -76zM493 576l223 472l120 -73l-188 -399l210 -404l-114 -76z" />
<glyph unicode="&#xac;" d="M68 425v143h887v-568h-158v425h-729z" />
<glyph unicode="&#xad;" horiz-adv-x="513" d="M14 493l3 152h483v-152h-486z" />
<glyph unicode="&#xae;" horiz-adv-x="1526" d="M68 681q0 197 102 366q101 165 279 256q148 76 324 76q186 0 353 -103q168 -103 256 -277q76 -150 76 -317q0 -138 -53 -266t-150 -226q-98 -98 -226 -151t-265 -53q-138 0 -266 53t-225 150q-98 98 -151.5 226.5t-53.5 265.5zM183 683q0 -245 171 -417 q170 -172 410 -172q239 0 409 172q170 173 170 415q0 119 -45 229t-125 190q-174 171 -416 171q-110 0 -216 -45t-187 -126q-82 -82 -126.5 -191t-44.5 -226zM452 300v779h384q107 0 162 -34q76 -48 76 -192q0 -96 -26 -144q-21 -38 -81 -57q96 -31 96 -150v-202h-116v182 q0 75 -35 103q-37 26 -108 24h-236v-309h-116zM568 710h224q84 0 122 22q44 26 44 102q0 81 -20 109q-25 35 -115 35h-255v-268z" />
<glyph unicode="&#xaf;" d="M0 1511v107h1024v-107h-1024z" />
<glyph unicode="&#xb0;" horiz-adv-x="767" d="M102 1100q0 119 92 202q80 72 194 72q122 0 206 -93q71 -78 71 -183q0 -121 -92 -204q-80 -72 -190 -72q-119 0 -202 85q-79 80 -79 193zM201 1098q0 -72 51 -124q54 -55 131 -55q82 0 137 60q46 51 46 120q0 77 -59 131q-52 47 -126 47q-79 0 -134 -60q-46 -50 -46 -119 z" />
<glyph unicode="&#xb1;" horiz-adv-x="1079" d="M60 10v143h960v-143h-960zM60 640v143h404v354h151v-354h405v-143h-405v-350h-151v350h-404z" />
<glyph unicode="&#xb2;" horiz-adv-x="853" d="M80 341v172q0 69 13.5 110t45.5 68q45 37 126 53q23 4 138 17q153 16 178 37q29 23 29 136q0 90 -25 114q-31 29 -147 29q-184 0 -207 -34q-16 -25 -16 -90q0 -21 2 -81h-136v14q2 80 4 109q14 142 120 176q78 25 225 25q185 0 252 -62q61 -56 61 -212q0 -98 -21 -148 q-32 -74 -120 -103q-56 -19 -176 -30q-127 -11 -167 -28q-30 -14 -38 -63q-4 -16 -4 -84v-7h523v-118h-660z" />
<glyph unicode="&#xb3;" horiz-adv-x="853" d="M76 630v14h135v-14v-53q0 -79 25 -103q15 -16 68 -19q37 -3 144 -3q129 0 154 28q20 23 20 120q0 88 -54 106q-24 9 -186 9l-43 -1h-14v120q39 -1 49 -1q175 0 202 17q30 18 30 95q0 62 -12 94q-12 30 -70 35q-8 0 -124 3q-94 -2 -124 -8q-36 -10 -46 -41q-6 -15 -6 -78 v-26v-24h-134l1 14q0 87 5 125q12 77 66 112q55 36 132 41q53 4 121 4q131 0 184 -13q100 -26 128 -102q16 -42 16 -109q0 -118 -39 -162q-16 -19 -42 -33q42 -18 60 -42q37 -48 37 -148q0 -142 -61 -196q-43 -38 -111 -48q-71 -10 -162 -10q-153 0 -217 20 q-105 33 -126 134q-6 28 -6 143z" />
<glyph unicode="&#xb4;" d="M379 1396l309 234l83 -112l-337 -207z" />
<glyph unicode="&#xb5;" horiz-adv-x="1223" d="M115 -273l14 630v677h159v-677q0 -124 21 -161q26 -46 105 -61q47 -9 181 -9q198 0 258 20q56 19 73 90q9 40 9 121v677h159v-677q0 -150 -33 -218q-49 -103 -176 -137q-69 -18 -270 -18q-130 0 -190 5t-103 19q-41 14 -80 40l11 -321h-138z" />
<glyph unicode="&#xb6;" horiz-adv-x="1256" d="M102 882q0 223 66 333q65 108 191 136q61 14 258 14h482v-1560h-156v1414h-187v-1414h-156v612h-68q-225 0 -331 109q-52 54 -75.5 139t-23.5 217z" />
<glyph unicode="&#xb7;" horiz-adv-x="431" d="M123 468v212h185v-212h-185z" />
<glyph unicode="&#xb8;" d="M345 -258h51q80 1 119 42.5t40 129.5v47h123v-62q-1 -174 -72 -239t-193 -70h-68v152z" />
<glyph unicode="&#xb9;" horiz-adv-x="853" d="M214 932l256 256h168v-847h-137v707l-202 -202z" />
<glyph unicode="&#xba;" horiz-adv-x="783" d="M82 834q0 169 26 236q39 98 154 119q44 8 135 8q164 0 225 -51q55 -45 68 -136q11 -75 11 -171q0 -162 -27 -230q-38 -98 -153 -119q-44 -8 -129 -8q-171 0 -231 50q-55 47 -68 137q-11 73 -11 165zM212 847q0 -137 13 -183q12 -43 38 -56q33 -16 129 -16q112 0 140 24 q39 33 39 218q0 135 -13 181q-11 43 -38 56q-33 16 -131 16q-110 0 -138 -24q-39 -33 -39 -216z" />
<glyph unicode="&#xbb;" horiz-adv-x="981" d="M123 172l209 404l-187 399l120 73l222 -472l-251 -480zM507 172l209 404l-187 399l120 73l223 -472l-251 -480z" />
<glyph unicode="&#xbc;" horiz-adv-x="1946" d="M96 932l256 256h168v-847h-137v707l-202 -202zM543 0l649 1188h135l-653 -1188h-131zM1102 186v134l440 527h179v-544h129v-117h-129v-186h-137v186h-482zM1246 303h338v410z" />
<glyph unicode="&#xbd;" horiz-adv-x="1946" d="M98 932l256 256h168v-847h-137v707l-202 -202zM484 0l649 1188h135l-653 -1188h-131zM1186 0v172q0 69 13.5 110t45.5 68q45 37 126 53q23 4 138 17q153 16 178 37q29 23 29 136q0 90 -25 114q-31 29 -147 29q-184 0 -207 -34q-16 -25 -16 -90q0 -17 1 -51q0 -19 1 -30 h-136v14q2 80 4 109q14 142 120 176q79 25 225 25q184 0 252 -62q61 -56 61 -212q0 -98 -21 -148q-32 -74 -120 -103q-57 -19 -176 -29q-127 -12 -167 -29q-30 -14 -38 -63q-4 -16 -4 -84v-7h523v-118h-660z" />
<glyph unicode="&#xbe;" horiz-adv-x="1946" d="M71 630v14h135v-14v-53q0 -79 25 -103q15 -16 68 -19q37 -3 144 -3q129 0 154 28q20 23 20 120q0 88 -54 106q-24 9 -186 9l-43 -1h-14v120q39 -1 49 -1q175 0 202 17q30 18 30 95q0 62 -12 94q-12 30 -70 35q-8 0 -124 3q-94 -2 -124 -8q-36 -10 -46 -41q-6 -15 -6 -78 v-26v-24h-134l1 14q0 87 5 125q12 77 66 112q55 36 132 41q53 4 121 4q131 0 184 -13q100 -26 128 -102q16 -42 16 -109q0 -118 -39 -162q-16 -19 -42 -33q42 -18 60 -42q37 -48 37 -148q0 -142 -61 -196q-43 -38 -111 -48q-71 -10 -162 -10q-153 0 -217 20 q-105 33 -126 134q-6 28 -6 143zM578 0l649 1188h135l-653 -1188h-131zM1137 186v134l440 527h179v-544h129v-117h-129v-186h-137v186h-482zM1281 303h338v410z" />
<glyph unicode="&#xbf;" horiz-adv-x="976" d="M123 155q0 151 17 195q20 52 55 78q36 27 200 88q43 16 53 34q10 16 10 66v176h157v-192q0 -128 -65 -173q-35 -22 -173 -70q-71 -24 -90 -64q-13 -26 -13 -103q0 -135 9 -165q19 -61 86 -72q33 -6 127 -6q95 0 129 11q60 18 72 92q3 21 3 86v29h153v-37q0 -103 -12 -152 q-25 -102 -118 -141q-72 -31 -225 -31q-157 0 -229 26q-110 39 -135 141q-11 46 -11 184zM443 976v212h185v-212h-185z" />
<glyph unicode="&#xc0;" horiz-adv-x="1442" d="M20 0l444 1170h202l453 -1170h-168l-93 242h-577l-92 -242h-169zM332 376h474l-239 625zM454 1605l34 135l375 -101l-20 -100z" />
<glyph unicode="&#xc1;" horiz-adv-x="1442" d="M20 0l444 1170h202l453 -1170h-168l-93 242h-577l-92 -242h-169zM332 376h474l-239 625zM578 1639l375 101l34 -135l-390 -66z" />
<glyph unicode="&#xc2;" horiz-adv-x="1442" d="M20 0l444 1170h202l453 -1170h-168l-93 242h-577l-92 -242h-169zM332 376h474l-239 625zM358 1580l367 208l358 -208l-49 -88l-309 142l-324 -142z" />
<glyph unicode="&#xc3;" horiz-adv-x="1442" d="M20 0l444 1170h202l453 -1170h-168l-93 242h-577l-92 -242h-169zM332 376h474l-239 625zM367 1589q34 61 59 90q56 65 139 65q47 0 155 -46q104 -45 142 -45q63 0 122 92l89 -57q-97 -157 -214 -157q-52 0 -159 47q-95 42 -139 42q-38 0 -62 -26q-15 -17 -37 -58z" />
<glyph unicode="&#xc4;" horiz-adv-x="1442" d="M20 -195l571 1560h248l582 -1560h-184l-121 331h-790l-119 -331h-187zM376 276h688l-346 946zM421 1563v155h184v-155h-184zM836 1563v155h184v-155h-184z" />
<glyph unicode="&#xc5;" horiz-adv-x="1442" d="M20 0l444 1170h202l453 -1170h-168l-93 242h-577l-92 -242h-169zM332 376h474l-239 625zM541 1655q0 78 59 132q51 46 124 46q76 0 130 -59q46 -51 46 -120q0 -80 -59 -133q-52 -46 -120 -46q-80 0 -134 59q-46 51 -46 121zM619 1654q0 -45 34 -75q28 -26 68 -26 q45 0 75 33q26 29 26 69q0 44 -34 74q-28 26 -69 26q-43 0 -74 -33q-26 -29 -26 -68z" />
<glyph unicode="&#xc6;" horiz-adv-x="1729" d="M19 0l651 1170h960v-142h-612v-357h586v-139h-586v-390h612v-142h-771v239h-522l-130 -239h-188zM414 381h445v647h-94z" />
<glyph unicode="&#xc7;" horiz-adv-x="1151" d="M94 569q0 273 13 358q21 136 143 204q76 43 203 51q62 4 225 4q154 0 215 -20q138 -45 166 -200q10 -57 10 -144q0 -10 -1 -32h-157q-1 39 -1 51q-2 142 -48 175q-40 29 -185 29q-192 0 -276 -11q-52 -7 -80.5 -29.5t-43.5 -68.5q-16 -50 -16 -166q0 -412 22 -514 q13 -66 48 -93q40 -31 130 -35q55 -2 118 -2q145 0 212.5 9.5t92.5 33.5q35 34 35 153q0 39 -2 90h159v-58q1 -145 -22 -207q-46 -127 -205 -153q-60 -10 -301 -10q-108 0 -154 4.5t-91 20.5q-176 59 -199 311q-10 116 -10 249zM409 -258h51q80 1 119 42.5t40 129.5v47h123 v-62q-1 -174 -72 -239t-193 -70h-68v152z" />
<glyph unicode="&#xc8;" horiz-adv-x="1268" d="M143 0v1170h794v-142h-635v-354h610v-139h-610v-393h635v-142h-794zM387 1605l34 135l375 -101l-20 -100z" />
<glyph unicode="&#xc9;" horiz-adv-x="1268" d="M143 0v1170h794v-142h-635v-354h610v-139h-610v-393h635v-142h-794zM512 1639l375 101l34 -135l-390 -66z" />
<glyph unicode="&#xca;" horiz-adv-x="1268" d="M143 0v1170h794v-142h-635v-354h610v-139h-610v-393h635v-142h-794zM291 1580l367 208l358 -208l-49 -88l-309 142l-324 -142z" />
<glyph unicode="&#xcb;" horiz-adv-x="1268" d="M143 0v1170h794v-142h-635v-354h610v-139h-610v-393h635v-142h-794zM355 1563v155h184v-155h-184zM770 1563v155h184v-155h-184z" />
<glyph unicode="&#xcc;" horiz-adv-x="489" d="M-19 1605l34 135l375 -101l-20 -100zM143 0v1170h159v-1170h-159z" />
<glyph unicode="&#xcd;" horiz-adv-x="489" d="M157 -195v1560h175v-1560h-175z" />
<glyph unicode="&#xce;" horiz-adv-x="445" d="M-77 1377l300 240l300 -240l-64 -80l-236 173l-235 -173zM143 0v1170h159v-1170h-159z" />
<glyph unicode="&#xcf;" horiz-adv-x="489" d="M33 1563v155h176v-155h-176zM143 0v1170h159v-1170h-159zM284 1563v155h176v-155h-176z" />
<glyph unicode="&#xd0;" horiz-adv-x="1265" d="M49 531v117h116v522h573q110 0 190 -20q121 -29 185 -149q59 -111 59 -362q0 -207 -9 -289q-25 -227 -171 -303q-55 -28 -169 -43q-31 -4 -53 -4h-605v531h-116zM324 142h386q186 0 241 66q46 55 57 186q5 57 5 166q0 199 -10 280q-18 134 -117 169q-54 19 -149 19h-413 v-380h300v-117h-300v-389z" />
<glyph unicode="&#xd1;" horiz-adv-x="1647" d="M143 0v1170h234l643 -1023v1023h159v-1170h-235l-642 1023v-1023h-159zM471 1589q34 61 59 90q56 65 139 65q47 0 155 -46q104 -45 142 -45q63 0 122 92l89 -57q-97 -157 -214 -157q-52 0 -159 47q-95 42 -139 42q-38 0 -62 -26q-15 -17 -37 -58z" />
<glyph unicode="&#xd2;" horiz-adv-x="1534" d="M94 637q0 162 8 225q28 220 176 285q66 29 173 35q69 4 174 4q131 0 199 -8.5t119 -30.5q148 -64 176 -286q8 -60 8 -218q0 -270 -9 -340q-15 -114 -52 -177t-110 -98q-74 -36 -192 -41q-61 -3 -154 -3q-157 0 -223.5 8.5t-122.5 35.5q-105 52 -141 176q-25 86 -27 203 q-2 76 -2 230zM253 585q0 -212 4 -252q8 -81 28.5 -122t63.5 -59q38 -16 111 -19q58 -3 151 -3q124 0 177 4.5t85 17.5q60 25 81 112q14 61 14 140v181q0 212 -4 252q-8 82 -28.5 122.5t-63.5 58.5q-39 16 -114 19q-61 3 -164 3q-115 0 -164 -4.5t-82 -18.5 q-60 -25 -81 -111q-14 -60 -14 -140v-181zM500 1605l34 135l375 -101l-20 -100z" />
<glyph unicode="&#xd3;" horiz-adv-x="1534" d="M94 637q0 162 8 225q28 220 176 285q66 29 173 35q69 4 174 4q131 0 199 -8.5t119 -30.5q148 -64 176 -286q8 -60 8 -218q0 -270 -9 -340q-15 -114 -52 -177t-110 -98q-74 -36 -192 -41q-61 -3 -154 -3q-157 0 -223.5 8.5t-122.5 35.5q-105 52 -141 176q-25 86 -27 203 q-2 76 -2 230zM253 585q0 -212 4 -252q8 -81 28.5 -122t63.5 -59q38 -16 111 -19q58 -3 151 -3q124 0 177 4.5t85 17.5q60 25 81 112q14 61 14 140v181q0 212 -4 252q-8 82 -28.5 122.5t-63.5 58.5q-39 16 -114 19q-61 3 -164 3q-115 0 -164 -4.5t-82 -18.5 q-60 -25 -81 -111q-14 -60 -14 -140v-181zM625 1639l375 101l34 -135l-390 -66z" />
<glyph unicode="&#xd4;" horiz-adv-x="1534" d="M94 637q0 162 8 225q28 220 176 285q66 29 173 35q69 4 174 4q131 0 199 -8.5t119 -30.5q148 -64 176 -286q8 -60 8 -218q0 -270 -9 -340q-15 -114 -52 -177t-110 -98q-74 -36 -192 -41q-61 -3 -154 -3q-157 0 -223.5 8.5t-122.5 35.5q-105 52 -141 176q-25 86 -27 203 q-2 76 -2 230zM253 585q0 -212 4 -252q8 -81 28.5 -122t63.5 -59q38 -16 111 -19q58 -3 151 -3q124 0 177 4.5t85 17.5q60 25 81 112q14 61 14 140v181q0 212 -4 252q-8 82 -28.5 122.5t-63.5 58.5q-39 16 -114 19q-61 3 -164 3q-115 0 -164 -4.5t-82 -18.5 q-60 -25 -81 -111q-14 -60 -14 -140v-181zM404 1580l367 208l358 -208l-49 -88l-309 142l-324 -142z" />
<glyph unicode="&#xd5;" horiz-adv-x="1534" d="M94 637q0 162 8 225q28 220 176 285q66 29 173 35q69 4 174 4q131 0 199 -8.5t119 -30.5q148 -64 176 -286q8 -60 8 -218q0 -270 -9 -340q-15 -114 -52 -177t-110 -98q-74 -36 -192 -41q-61 -3 -154 -3q-157 0 -223.5 8.5t-122.5 35.5q-105 52 -141 176q-25 86 -27 203 q-2 76 -2 230zM253 585q0 -212 4 -252q8 -81 28.5 -122t63.5 -59q38 -16 111 -19q58 -3 151 -3q124 0 177 4.5t85 17.5q60 25 81 112q14 61 14 140v181q0 212 -4 252q-8 82 -28.5 122.5t-63.5 58.5q-39 16 -114 19q-61 3 -164 3q-115 0 -164 -4.5t-82 -18.5 q-60 -25 -81 -111q-14 -60 -14 -140v-181zM414 1589q34 61 59 90q56 65 139 65q47 0 155 -46q104 -45 142 -45q63 0 122 92l89 -57q-97 -157 -214 -157q-52 0 -159 47q-95 42 -139 42q-38 0 -62 -26q-15 -17 -37 -58z" />
<glyph unicode="&#xd6;" horiz-adv-x="1534" d="M94 637q0 162 8 225q28 220 176 285q66 29 173 35q69 4 174 4q131 0 199 -8.5t119 -30.5q148 -64 176 -286q8 -60 8 -218q0 -270 -9 -340q-15 -114 -52 -177t-110 -98q-74 -36 -192 -41q-61 -3 -154 -3q-157 0 -223.5 8.5t-122.5 35.5q-105 52 -141 176q-25 86 -27 203 q-2 76 -2 230zM253 585q0 -212 4 -252q8 -81 28.5 -122t63.5 -59q38 -16 111 -19q58 -3 151 -3q124 0 177 4.5t85 17.5q60 25 81 112q14 61 14 140v181q0 212 -4 252q-8 82 -28.5 122.5t-63.5 58.5q-39 16 -114 19q-61 3 -164 3q-115 0 -164 -4.5t-82 -18.5 q-60 -25 -81 -111q-14 -60 -14 -140v-181zM467 1563v155h184v-155h-184zM882 1563v155h184v-155h-184z" />
<glyph unicode="&#xd7;" horiz-adv-x="1079" d="M105 235l339 338l-339 339l95 95l339 -338l339 338l95 -95l-339 -339l339 -338l-95 -95l-339 338l-339 -338z" />
<glyph unicode="&#xd8;" horiz-adv-x="1124" d="M38 -55v164l51 54q-15 39 -22 72q-18 85 -20 172q-1 65 -1 208q0 189 8 247q29 220 176 285q65 29 168 35q65 4 152 4q142 0 213 -7t118 -26q49 -19 88 -54l118 126v-164l-53 -56q19 -46 28 -87q17 -83 17 -267q0 -278 -9 -348q-15 -114 -52 -177t-110 -98 q-75 -36 -187 -41q-56 -3 -133 -3q-160 0 -226 6t-115 24q-51 20 -93 55zM204 766l1 -181q0 -230 8 -290l653 695q-31 29 -74 39q-48 11 -273 11q-145 0 -195 -15q-46 -13 -69.5 -40t-36.5 -79q-14 -60 -14 -140zM259 180q31 -29 74 -39q48 -11 272 -11q163 0 219 23 q61 24 82 111q14 61 14 140v181q0 229 -8 290z" />
<glyph unicode="&#xd9;" horiz-adv-x="1550" d="M143 357v813h159v-813q0 -124 21 -161q27 -46 105 -61q47 -9 181 -9q197 0 258 20q56 18 72 90q10 40 10 121v813h159v-813q0 -150 -33 -218q-49 -103 -176 -137q-69 -18 -267 -18q-141 0 -202.5 6t-108.5 24q-105 40 -145 125q-33 71 -33 218zM507 1605l34 135l375 -101 l-20 -100z" />
<glyph unicode="&#xda;" horiz-adv-x="1550" d="M143 357v813h159v-813q0 -124 21 -161q27 -46 105 -61q47 -9 181 -9q197 0 258 20q56 18 72 90q10 40 10 121v813h159v-813q0 -150 -33 -218q-49 -103 -176 -137q-69 -18 -267 -18q-141 0 -202.5 6t-108.5 24q-105 40 -145 125q-33 71 -33 218zM632 1639l375 101l34 -135 l-390 -66z" />
<glyph unicode="&#xdb;" horiz-adv-x="1550" d="M143 357v813h159v-813q0 -124 21 -161q27 -46 105 -61q47 -9 181 -9q197 0 258 20q56 18 72 90q10 40 10 121v813h159v-813q0 -150 -33 -218q-49 -103 -176 -137q-69 -18 -267 -18q-141 0 -202.5 6t-108.5 24q-105 40 -145 125q-33 71 -33 218zM411 1580l367 208 l358 -208l-49 -88l-309 142l-324 -142z" />
<glyph unicode="&#xdc;" horiz-adv-x="1550" d="M143 357v813h159v-813q0 -124 21 -161q27 -46 105 -61q47 -9 181 -9q197 0 258 20q56 18 72 90q10 40 10 121v813h159v-813q0 -150 -33 -218q-49 -103 -176 -137q-69 -18 -267 -18q-141 0 -202.5 6t-108.5 24q-105 40 -145 125q-33 71 -33 218zM475 1563v155h184v-155 h-184zM890 1563v155h184v-155h-184z" />
<glyph unicode="&#xdd;" horiz-adv-x="1365" d="M1 1170h187l345 -516l344 516h190l-459 -683v-487h-159v487zM541 1639l375 101l34 -135l-390 -66z" />
<glyph unicode="&#xde;" horiz-adv-x="1121" d="M143 0v1170h159v-218h365q112 0 159 -5.5t87 -23.5q146 -66 146 -336q0 -149 -40 -225q-51 -97 -160 -123q-38 -9 -212 -11h-345v-228h-159zM302 370h320q147 0 198 18q55 20 71 84q9 33 9 97q0 121 -15 168q-17 53 -78 66q-26 6 -144 7h-361v-440z" />
<glyph unicode="&#xdf;" horiz-adv-x="1112" d="M116 -80l1 952q0 196 89 265q64 49 173 57q70 5 163 5q173 0 243 -19q128 -34 164 -137q20 -57 20 -151q0 -163 -49 -222q-32 -39 -96 -59q65 -16 99 -46q68 -59 68 -227q0 -197 -77 -270q-55 -52 -143 -66q-94 -14 -218 -14h-123v140h158q175 0 215 46q31 36 31 182 q0 102 -37 141q-29 31 -79 37q-34 4 -80 4h-205v140h205q115 0 149 47q25 34 25 125q0 98 -19 148q-10 27 -32.5 39t-71.5 18q-43 4 -154 4t-159.5 -7t-71.5 -27q-36 -30 -36 -153v-952h-152z" />
<glyph unicode="&#xe0;" horiz-adv-x="1138" d="M20 0l444 1170h202l453 -1170h-168l-93 242h-577l-92 -242h-169zM311 1518l82 112l310 -234l-56 -85zM332 376h474l-239 625z" />
<glyph unicode="&#xe1;" horiz-adv-x="1138" d="M20 0l444 1170h202l453 -1170h-168l-93 242h-577l-92 -242h-169zM332 376h474l-239 625zM436 1396l309 234l83 -112l-337 -207z" />
<glyph unicode="&#xe2;" horiz-adv-x="1138" d="M20 0l444 1170h202l453 -1170h-168l-93 242h-577l-92 -242h-169zM269 1377l300 240l300 -240l-64 -80l-236 173l-235 -173zM332 376h474l-239 625z" />
<glyph unicode="&#xe3;" horiz-adv-x="1138" d="M20 0l444 1170h202l453 -1170h-168l-93 242h-577l-92 -242h-169zM253 1406q32 55 57 82q54 59 129 59q48 0 142 -44q98 -45 125 -45q45 0 88 85l91 -57q-81 -144 -180 -144q-54 0 -146 44q-89 43 -123 43q-36 0 -57 -26q-13 -15 -34 -56zM332 376h474l-239 625z" />
<glyph unicode="&#xe4;" horiz-adv-x="1138" d="M20 0l444 1170h202l453 -1170h-168l-93 242h-577l-92 -242h-169zM270 1366v155h184v-155h-184zM332 376h474l-239 625zM685 1366v155h184v-155h-184z" />
<glyph unicode="&#xe5;" horiz-adv-x="1138" d="M20 0l444 1170h202l453 -1170h-168l-93 242h-577l-92 -242h-169zM332 376h474l-239 625zM390 1468q0 77 59 132q51 46 124 46q76 0 130 -59q46 -52 46 -120q0 -81 -59 -134q-52 -46 -120 -46q-81 0 -134 59q-46 51 -46 122zM468 1467q0 -46 34 -76q28 -26 68 -26 q45 0 75 34q26 28 26 68q0 44 -34 75q-28 26 -69 26q-44 0 -74 -34q-26 -29 -26 -67z" />
<glyph unicode="&#xe6;" horiz-adv-x="1729" d="M19 0l651 1170h960v-142h-612v-357h586v-139h-586v-390h612v-142h-771v239h-522l-130 -239h-188zM414 381h445v647h-94z" />
<glyph unicode="&#xe7;" horiz-adv-x="1151" d="M94 569q0 273 13 358q21 136 143 204q76 43 203 51q62 4 225 4q154 0 215 -20q138 -45 166 -200q10 -57 10 -144q0 -10 -1 -32h-157q-1 39 -1 51q-2 142 -48 175q-40 29 -185 29q-192 0 -276 -11q-52 -7 -80.5 -29.5t-43.5 -68.5q-16 -50 -16 -166q0 -412 22 -514 q13 -66 48 -93q40 -31 130 -35q55 -2 118 -2q145 0 212.5 9.5t92.5 33.5q35 34 35 153q0 39 -2 90h159v-58q1 -145 -22 -207q-46 -127 -205 -153q-60 -10 -301 -10q-108 0 -154 4.5t-91 20.5q-176 59 -199 311q-10 116 -10 249zM409 -258h51q80 1 119 42.5t40 129.5v47h123 v-62q-1 -174 -72 -239t-193 -70h-68v152z" />
<glyph unicode="&#xe8;" horiz-adv-x="1036" d="M143 0v1170h794v-142h-635v-354h610v-139h-610v-393h635v-142h-794zM278 1518l82 112l310 -234l-56 -85z" />
<glyph unicode="&#xe9;" horiz-adv-x="1036" d="M143 0v1170h794v-142h-635v-354h610v-139h-610v-393h635v-142h-794zM403 1396l309 234l83 -112l-337 -207z" />
<glyph unicode="&#xea;" horiz-adv-x="1036" d="M143 0v1170h794v-142h-635v-354h610v-139h-610v-393h635v-142h-794zM236 1377l300 240l300 -240l-64 -80l-236 173l-235 -173z" />
<glyph unicode="&#xeb;" horiz-adv-x="1036" d="M143 0v1170h794v-142h-635v-354h610v-139h-610v-393h635v-142h-794zM237 1366v155h184v-155h-184zM652 1366v155h184v-155h-184z" />
<glyph unicode="&#xec;" horiz-adv-x="445" d="M-33 1518l82 112l310 -234l-56 -85zM143 0v1170h159v-1170h-159z" />
<glyph unicode="&#xed;" horiz-adv-x="445" d="M92 1396l309 234l83 -112l-337 -207zM143 0v1170h159v-1170h-159z" />
<glyph unicode="&#xee;" horiz-adv-x="445" d="M-77 1377l300 240l300 -240l-64 -80l-236 173l-235 -173zM143 0v1170h159v-1170h-159z" />
<glyph unicode="&#xef;" horiz-adv-x="445" d="M-13 1366v155h184v-155h-184zM143 0v1170h159v-1170h-159zM280 1366v155h184v-155h-184z" />
<glyph unicode="&#xf0;" horiz-adv-x="1265" d="M49 531v117h116v522h573q110 0 190 -20q121 -29 185 -149q59 -111 59 -362q0 -207 -9 -289q-25 -227 -171 -303q-55 -28 -169 -43q-31 -4 -53 -4h-605v531h-116zM324 142h386q186 0 241 66q46 55 57 186q5 57 5 166q0 199 -10 280q-18 134 -117 169q-54 19 -149 19h-413 v-380h300v-117h-300v-389z" />
<glyph unicode="&#xf1;" horiz-adv-x="1321" d="M143 0v1170h234l643 -1023v1023h159v-1170h-235l-642 1023v-1023h-159zM345 1406q32 55 57 82q54 59 129 59q48 0 142 -44q98 -45 125 -45q45 0 88 85l91 -57q-81 -144 -180 -144q-54 0 -146 44q-89 43 -123 43q-36 0 -57 -26q-13 -15 -34 -56z" />
<glyph unicode="&#xf2;" horiz-adv-x="1220" d="M94 637q0 162 8 225q28 220 176 285q66 29 173 35q69 4 174 4q131 0 199 -8.5t119 -30.5q148 -64 176 -286q8 -60 8 -218q0 -270 -9 -340q-15 -114 -52 -177t-110 -98q-74 -36 -192 -41q-61 -3 -154 -3q-157 0 -223.5 8.5t-122.5 35.5q-105 52 -141 176q-25 86 -27 203 q-2 76 -2 230zM253 585q0 -212 4 -252q8 -81 28.5 -122t63.5 -59q38 -16 111 -19q58 -3 151 -3q124 0 177 4.5t85 17.5q60 25 81 112q14 61 14 140v181q0 212 -4 252q-8 82 -28.5 122.5t-63.5 58.5q-39 16 -114 19q-61 3 -164 3q-115 0 -164 -4.5t-82 -18.5 q-60 -25 -81 -111q-14 -60 -14 -140v-181zM352 1518l82 112l310 -234l-56 -85z" />
<glyph unicode="&#xf3;" horiz-adv-x="1220" d="M94 637q0 162 8 225q28 220 176 285q66 29 173 35q69 4 174 4q131 0 199 -8.5t119 -30.5q148 -64 176 -286q8 -60 8 -218q0 -270 -9 -340q-15 -114 -52 -177t-110 -98q-74 -36 -192 -41q-61 -3 -154 -3q-157 0 -223.5 8.5t-122.5 35.5q-105 52 -141 176q-25 86 -27 203 q-2 76 -2 230zM253 585q0 -212 4 -252q8 -81 28.5 -122t63.5 -59q38 -16 111 -19q58 -3 151 -3q124 0 177 4.5t85 17.5q60 25 81 112q14 61 14 140v181q0 212 -4 252q-8 82 -28.5 122.5t-63.5 58.5q-39 16 -114 19q-61 3 -164 3q-115 0 -164 -4.5t-82 -18.5 q-60 -25 -81 -111q-14 -60 -14 -140v-181zM477 1396l309 234l83 -112l-337 -207z" />
<glyph unicode="&#xf4;" horiz-adv-x="1220" d="M94 637q0 162 8 225q28 220 176 285q66 29 173 35q69 4 174 4q131 0 199 -8.5t119 -30.5q148 -64 176 -286q8 -60 8 -218q0 -270 -9 -340q-15 -114 -52 -177t-110 -98q-74 -36 -192 -41q-61 -3 -154 -3q-157 0 -223.5 8.5t-122.5 35.5q-105 52 -141 176q-25 86 -27 203 q-2 76 -2 230zM253 585q0 -212 4 -252q8 -81 28.5 -122t63.5 -59q38 -16 111 -19q58 -3 151 -3q124 0 177 4.5t85 17.5q60 25 81 112q14 61 14 140v181q0 212 -4 252q-8 82 -28.5 122.5t-63.5 58.5q-39 16 -114 19q-61 3 -164 3q-115 0 -164 -4.5t-82 -18.5 q-60 -25 -81 -111q-14 -60 -14 -140v-181zM310 1377l300 240l300 -240l-64 -80l-236 173l-235 -173z" />
<glyph unicode="&#xf5;" horiz-adv-x="1220" d="M94 637q0 162 8 225q28 220 176 285q66 29 173 35q69 4 174 4q131 0 199 -8.5t119 -30.5q148 -64 176 -286q8 -60 8 -218q0 -270 -9 -340q-15 -114 -52 -177t-110 -98q-74 -36 -192 -41q-61 -3 -154 -3q-157 0 -223.5 8.5t-122.5 35.5q-105 52 -141 176q-25 86 -27 203 q-2 76 -2 230zM253 585q0 -212 4 -252q8 -81 28.5 -122t63.5 -59q38 -16 111 -19q58 -3 151 -3q124 0 177 4.5t85 17.5q60 25 81 112q14 61 14 140v181q0 212 -4 252q-8 82 -28.5 122.5t-63.5 58.5q-39 16 -114 19q-61 3 -164 3q-115 0 -164 -4.5t-82 -18.5 q-60 -25 -81 -111q-14 -60 -14 -140v-181zM294 1406q32 55 57 82q54 59 129 59q48 0 142 -44q98 -45 125 -45q45 0 88 85l91 -57q-81 -144 -180 -144q-54 0 -146 44q-89 43 -123 43q-36 0 -57 -26q-13 -15 -34 -56z" />
<glyph unicode="&#xf6;" horiz-adv-x="1220" d="M94 637q0 162 8 225q28 220 176 285q66 29 173 35q69 4 174 4q131 0 199 -8.5t119 -30.5q148 -64 176 -286q8 -60 8 -218q0 -270 -9 -340q-15 -114 -52 -177t-110 -98q-74 -36 -192 -41q-61 -3 -154 -3q-157 0 -223.5 8.5t-122.5 35.5q-105 52 -141 176q-25 86 -27 203 q-2 76 -2 230zM253 585q0 -212 4 -252q8 -81 28.5 -122t63.5 -59q38 -16 111 -19q58 -3 151 -3q124 0 177 4.5t85 17.5q60 25 81 112q14 61 14 140v181q0 212 -4 252q-8 82 -28.5 122.5t-63.5 58.5q-39 16 -114 19q-61 3 -164 3q-115 0 -164 -4.5t-82 -18.5 q-60 -25 -81 -111q-14 -60 -14 -140v-181zM311 1366v155h184v-155h-184zM726 1366v155h184v-155h-184z" />
<glyph unicode="&#xf7;" horiz-adv-x="1079" d="M66 509v129h946v-129h-946zM447 241q0 39 30 68q26 24 64 24q40 0 67 -31q24 -26 24 -61q0 -41 -31 -69q-26 -24 -61 -24q-41 0 -69 31q-24 26 -24 62zM447 908q0 39 30 68q26 24 64 24q40 0 67 -31q24 -27 24 -61q0 -41 -31 -69q-26 -24 -61 -24q-41 0 -69 31 q-24 27 -24 62z" />
<glyph unicode="&#xf8;" horiz-adv-x="1124" d="M38 -55v164l51 54q-15 39 -22 72q-18 85 -20 172q-1 65 -1 208q0 189 8 247q29 220 176 285q65 29 168 35q65 4 152 4q142 0 213 -7t118 -26q49 -19 88 -54l118 126v-164l-53 -56q19 -46 28 -87q17 -83 17 -267q0 -278 -9 -348q-15 -114 -52 -177t-110 -98 q-75 -36 -187 -41q-56 -3 -133 -3q-160 0 -226 6t-115 24q-51 20 -93 55zM204 766l1 -181q0 -230 8 -290l653 695q-31 29 -74 39q-48 11 -273 11q-145 0 -195 -15q-46 -13 -69.5 -40t-36.5 -79q-14 -60 -14 -140zM259 180q31 -29 74 -39q48 -11 272 -11q163 0 219 23 q61 24 82 111q14 61 14 140v181q0 229 -8 290z" />
<glyph unicode="&#xf9;" horiz-adv-x="1251" d="M143 357v813h159v-813q0 -124 21 -161q27 -46 105 -61q47 -9 181 -9q197 0 258 20q56 18 72 90q10 40 10 121v813h159v-813q0 -150 -33 -218q-49 -103 -176 -137q-69 -18 -267 -18q-141 0 -202.5 6t-108.5 24q-105 40 -145 125q-33 71 -33 218zM366 1518l82 112l310 -234 l-56 -85z" />
<glyph unicode="&#xfa;" horiz-adv-x="1251" d="M143 357v813h159v-813q0 -124 21 -161q27 -46 105 -61q47 -9 181 -9q197 0 258 20q56 18 72 90q10 40 10 121v813h159v-813q0 -150 -33 -218q-49 -103 -176 -137q-69 -18 -267 -18q-141 0 -202.5 6t-108.5 24q-105 40 -145 125q-33 71 -33 218zM491 1396l309 234l83 -112 l-337 -207z" />
<glyph unicode="&#xfb;" horiz-adv-x="1251" d="M143 357v813h159v-813q0 -124 21 -161q27 -46 105 -61q47 -9 181 -9q197 0 258 20q56 18 72 90q10 40 10 121v813h159v-813q0 -150 -33 -218q-49 -103 -176 -137q-69 -18 -267 -18q-141 0 -202.5 6t-108.5 24q-105 40 -145 125q-33 71 -33 218zM324 1377l300 240 l300 -240l-64 -80l-236 173l-235 -173z" />
<glyph unicode="&#xfc;" horiz-adv-x="1251" d="M143 357v813h159v-813q0 -124 21 -161q27 -46 105 -61q47 -9 181 -9q197 0 258 20q56 18 72 90q10 40 10 121v813h159v-813q0 -150 -33 -218q-49 -103 -176 -137q-69 -18 -267 -18q-141 0 -202.5 6t-108.5 24q-105 40 -145 125q-33 71 -33 218zM325 1366v155h184v-155 h-184zM740 1366v155h184v-155h-184z" />
<glyph unicode="&#xfd;" horiz-adv-x="1068" d="M1 1170h187l345 -516l344 516h190l-459 -683v-487h-159v487zM400 1396l309 234l83 -112l-337 -207z" />
<glyph unicode="&#xfe;" horiz-adv-x="1121" d="M143 0v1170h159v-218h365q112 0 159 -5.5t87 -23.5q146 -66 146 -336q0 -149 -40 -225q-51 -97 -160 -123q-38 -9 -212 -11h-345v-228h-159zM302 370h320q147 0 198 18q55 20 71 84q9 33 9 97q0 121 -15 168q-17 53 -78 66q-26 6 -144 7h-361v-440z" />
<glyph unicode="&#xff;" horiz-adv-x="1068" d="M1 1170h187l345 -516l344 516h190l-459 -683v-487h-159v487zM234 1366v155h184v-155h-184zM649 1366v155h184v-155h-184z" />
<glyph unicode="&#x152;" horiz-adv-x="1820" d="M94 443q0 159 1 293q1 194 50 284q66 124 233 154q64 12 192 12q195 0 268 -24q50 -18 113 -78v86h770v-142h-616v-354h591v-139h-591v-393h616v-142h-771l2 85q-78 -68 -140 -86q-52 -15 -202 -15q-197 0 -257 11q-97 19 -160.5 84.5t-84.5 169.5q-14 72 -14 194z M254 435q0 -154 32 -223q30 -67 135 -80q44 -6 170 -6q175 0 228 14q85 23 108 102q16 58 16 156v355q0 132 -25 200q-14 37 -43 56t-87 27q-65 9 -268 9q-164 0 -213 -52q-49 -53 -52 -253q-1 -91 -1 -305z" />
<glyph unicode="&#x153;" horiz-adv-x="1820" d="M94 443q0 159 1 293q1 194 50 284q66 124 233 154q64 12 192 12q195 0 268 -24q50 -18 113 -78v86h770v-142h-616v-354h591v-139h-591v-393h616v-142h-771l2 85q-78 -68 -140 -86q-52 -15 -202 -15q-197 0 -257 11q-97 19 -160.5 84.5t-84.5 169.5q-14 72 -14 194z M254 435q0 -154 32 -223q30 -67 135 -80q44 -6 170 -6q175 0 228 14q85 23 108 102q16 58 16 156v355q0 132 -25 200q-14 37 -43 56t-87 27q-65 9 -268 9q-164 0 -213 -52q-49 -53 -52 -253q-1 -91 -1 -305z" />
<glyph unicode="&#x178;" horiz-adv-x="1365" d="M1 1170h187l345 -516l344 516h190l-459 -683v-487h-159v487zM383 1563v155h184v-155h-184zM798 1563v155h184v-155h-184z" />
<glyph unicode="&#x2c6;" d="M212 1377l300 240l300 -240l-64 -80l-236 173l-235 -173z" />
<glyph unicode="&#x2dc;" d="M196 1406q32 55 57 82q54 59 129 59q48 0 142 -44q98 -45 125 -45q45 0 88 85l91 -57q-81 -144 -180 -144q-54 0 -146 44q-89 43 -123 43q-36 0 -57 -26q-13 -15 -34 -56z" />
<glyph unicode="&#x2000;" horiz-adv-x="916" />
<glyph unicode="&#x2001;" horiz-adv-x="1833" />
<glyph unicode="&#x2002;" horiz-adv-x="916" />
<glyph unicode="&#x2003;" horiz-adv-x="1833" />
<glyph unicode="&#x2004;" horiz-adv-x="611" />
<glyph unicode="&#x2005;" horiz-adv-x="458" />
<glyph unicode="&#x2006;" horiz-adv-x="305" />
<glyph unicode="&#x2007;" horiz-adv-x="305" />
<glyph unicode="&#x2008;" horiz-adv-x="229" />
<glyph unicode="&#x2009;" horiz-adv-x="366" />
<glyph unicode="&#x200a;" horiz-adv-x="101" />
<glyph unicode="&#x2010;" horiz-adv-x="513" d="M20 493v152h473v-152h-473z" />
<glyph unicode="&#x2011;" horiz-adv-x="513" d="M20 493v152h473v-152h-473z" />
<glyph unicode="&#x2012;" horiz-adv-x="513" d="M20 493v152h473v-152h-473z" />
<glyph unicode="&#x2013;" horiz-adv-x="1109" d="M96 493v152h918v-152h-918z" />
<glyph unicode="&#x2014;" horiz-adv-x="1647" d="M14 493l11 152h1609v-152h-1620z" />
<glyph unicode="&#x2018;" horiz-adv-x="454" d="M123 956v228q0 111 26 151q39 62 132 62q18 0 50 -3v-87q-53 -3 -74 -20q-28 -21 -28 -77q0 -14 1 -43h79v-211h-186z" />
<glyph unicode="&#x2019;" horiz-adv-x="454" d="M123 925v88q54 3 75 19q28 21 28 76q0 16 -2 45h-78v212h185v-229q0 -111 -26 -151q-39 -62 -133 -62q-18 0 -49 2z" />
<glyph unicode="&#x201a;" horiz-adv-x="454" d="M123 -140q53 3 75 19q28 21 28 76q0 15 -2 45h-78v212h185v-228q0 -111 -26 -152q-38 -62 -133 -62q-18 0 -49 2v88z" />
<glyph unicode="&#x201c;" horiz-adv-x="782" d="M123 956v228q0 111 26 151q39 62 132 62q18 0 50 -3v-87q-53 -3 -74 -20q-28 -21 -28 -77q0 -14 1 -43h79v-211h-186zM451 956v228q0 110 25 151q39 62 132 62q19 0 51 -3v-87q-53 -3 -75 -20q-28 -21 -28 -75q0 -15 2 -45h78v-211h-185z" />
<glyph unicode="&#x201d;" horiz-adv-x="782" d="M123 925v88q54 3 75 19q28 21 28 76q0 16 -2 45h-78v212h185v-229q0 -111 -26 -151q-39 -62 -133 -62q-18 0 -49 2zM451 925v88q54 3 75 19q28 22 28 77q0 15 -2 44h-78v212h185v-229q0 -111 -26 -151q-38 -62 -132 -62q-19 0 -50 2z" />
<glyph unicode="&#x201e;" horiz-adv-x="782" d="M123 -140q53 3 75 19q28 21 28 76q0 15 -2 45h-78v212h185v-228q0 -111 -26 -152q-38 -62 -133 -62q-18 0 -49 2v88zM451 -140q53 3 75 19q28 22 28 77q0 15 -2 44h-78v212h185v-228q0 -111 -26 -152q-38 -62 -133 -62q-18 0 -49 2v88z" />
<glyph unicode="&#x2022;" horiz-adv-x="1365" d="M401 570q0 121 84 202q85 83 204 83q113 0 196 -83q84 -83 84 -201t-84 -201q-82 -83 -200 -83t-200 83q-84 83 -84 200z" />
<glyph unicode="&#x2026;" horiz-adv-x="1292" d="M123 0v212h185v-212h-185zM554 0v212h185v-212h-185zM985 0v212h185v-212h-185z" />
<glyph unicode="&#x202f;" horiz-adv-x="366" />
<glyph unicode="&#x2039;" horiz-adv-x="597" d="M109 600l223 473l120 -74l-188 -399l209 -404l-113 -75z" />
<glyph unicode="&#x203a;" horiz-adv-x="597" d="M123 172l209 404l-187 399l120 73l222 -472l-251 -480z" />
<glyph unicode="&#x205f;" horiz-adv-x="458" />
<glyph unicode="&#x20ac;" horiz-adv-x="1011" d="M98 457l29 108h81v101h-108l27 109h88q1 87 11 175q24 185 144 260q79 52 216 54t281 -48l-65 -118q-57 18 -126 29t-147 3q-58 -12 -87 -47t-44 -86q-17 -56 -22 -221h394l-35 -108h-361v-103h320l-39 -111h-281q3 -118 21 -208q24 -84 68 -119t129 -40q74 -1 123 7.5 t117 45.5l80 -115q-122 -63 -268 -67t-221 26q-175 66 -201 322q-8 74 -7 151h-117z" />
<glyph unicode="&#x2122;" horiz-adv-x="1766" d="M127 1257v108h565v-108h-222v-670h-119v670h-224zM829 587v778h171l232 -605l232 605h174v-778h-120v591l-227 -591h-115l-228 591v-591h-119z" />
<glyph unicode="&#x25fc;" horiz-adv-x="1170" d="M0 0v1170h1170v-1170h-1170z" />
</font>
</defs>
</svg>
